<svg height="512" viewBox="0 0 128 128" width="512" xmlns="http://www.w3.org/2000/svg" xmlns:xlink="http://www.w3.org/1999/xlink"><linearGradient id="a" gradientUnits="userSpaceOnUse" x1="91.034" x2="24.61" y1="106.343" y2="39.918"><stop offset="0" stop-color="#73c3f9"/><stop offset="1" stop-color="#ffc839"/></linearGradient><path d="m19.742 82.69a7.7 7.7 0 1 0 -7.7-7.7 7.7 7.7 0 0 0 7.7 7.7zm0-11.893a4.2 4.2 0 1 1 -4.2 4.2 4.2 4.2 0 0 1 4.2-4.197zm33.268 11.893a7.7 7.7 0 1 0 -7.7-7.7 7.705 7.705 0 0 0 7.7 7.7zm0-11.893a4.2 4.2 0 1 1 -4.2 4.2 4.2 4.2 0 0 1 4.2-4.197zm-8.937 20.831a7.7 7.7 0 1 0 -7.7 7.7 7.705 7.705 0 0 0 7.7-7.7zm-11.894 0a4.2 4.2 0 1 1 4.2 4.2 4.2 4.2 0 0 1 -4.2-4.2zm20.831 24.331a7.7 7.7 0 1 0 -7.7-7.7 7.705 7.705 0 0 0 7.7 7.7zm0-11.894a4.2 4.2 0 1 1 -4.2 4.2 4.2 4.2 0 0 1 4.2-4.2zm-33.268 11.894a7.7 7.7 0 1 0 -7.7-7.7 7.7 7.7 0 0 0 7.7 7.7zm0-11.894a4.2 4.2 0 1 1 -4.2 4.2 4.2 4.2 0 0 1 4.2-4.2zm34.105-69.236a7.7 7.7 0 1 0 10.514 2.818 7.707 7.707 0 0 0 -10.514-2.818zm5.947 10.3a4.2 4.2 0 1 1 1.536-5.729 4.2 4.2 0 0 1 -1.536 5.73zm22.616-4.98a7.7 7.7 0 0 0 -3.983 14.87 7.768 7.768 0 0 0 2 .265 7.7 7.7 0 0 0 1.983-15.135zm.107 11.07a4.2 4.2 0 1 1 -2.1-7.834 4.258 4.258 0 0 1 1.093.145 4.2 4.2 0 0 1 1.012 7.689zm28.059 4.445a7.71 7.71 0 1 0 -3.587 4.674 7.65 7.65 0 0 0 3.587-4.674zm-3.381-.905a4.2 4.2 0 1 1 -4.06-5.285 4.249 4.249 0 0 1 1.092.144 4.2 4.2 0 0 1 2.968 5.141zm20.605 5.521a5.716 5.716 0 0 1 -2.68 3.492l-15.159 8.752a1.75 1.75 0 1 1 -1.75-3.031l15.159-8.753a2.248 2.248 0 0 0 .824-3.073l-30.621-53.041a2.248 2.248 0 0 0 -3.073-.826l-53.042 30.626a2.249 2.249 0 0 0 -.823 3.073l10.25 17.754h20.115a5.756 5.756 0 0 1 5.748 5.747v28.97l8.925-5.154a1.75 1.75 0 0 1 1.75 3.032l-10.675 6.163v28.239a5.756 5.756 0 0 1 -5.748 5.75h-61.249a5.757 5.757 0 0 1 -5.751-5.75v-57a1.75 1.75 0 0 1 3.5 0v57a2.253 2.253 0 0 0 2.25 2.25h61.25a2.253 2.253 0 0 0 2.25-2.25v-61.25a2.253 2.253 0 0 0 -2.25-2.247h-55.875a1.75 1.75 0 0 1 0-3.5h31.718l-9.24-16a5.75 5.75 0 0 1 2.1-7.854l53.047-30.628a5.748 5.748 0 0 1 7.85 2.105l30.624 53.041a5.714 5.714 0 0 1 .576 4.363zm-27.559 15.837a1.751 1.751 0 0 1 -.64 2.391l-5.815 3.357a1.75 1.75 0 1 1 -1.75-3.031l5.815-3.357a1.75 1.75 0 0 1 2.39.64z" fill="url(#a)"/></svg>