<?xml version="1.0"?>
<svg xmlns="http://www.w3.org/2000/svg" xmlns:xlink="http://www.w3.org/1999/xlink" width="512" height="512" viewBox="0 0 128 128"><defs><linearGradient id="a" x1="112.987" y1="112.984" x2="12.647" y2="12.645" gradientUnits="userSpaceOnUse"><stop offset="0" stop-color="#73c3f9"/><stop offset="1" stop-color="#ffc839"/></linearGradient></defs><path d="M118.531,105.5a1.75,1.75,0,0,1-1.75,1.75H7.75A7.759,7.759,0,0,1,0,99.5v-71a7.759,7.759,0,0,1,7.75-7.75H25.937a1.75,1.75,0,0,1,0,3.5H7.75A4.255,4.255,0,0,0,3.5,28.5v71a4.255,4.255,0,0,0,4.25,4.25H116.781A1.75,1.75,0,0,1,118.531,105.5Zm1.719-84.75H66.422a1.75,1.75,0,0,0,0,3.5H120.25a4.255,4.255,0,0,1,4.25,4.25v68.75a1.75,1.75,0,1,0,3.5,0V28.5A7.759,7.759,0,0,0,120.25,20.747ZM41.3,24.247h9.765a1.75,1.75,0,0,0,0-3.5H41.3a1.75,1.75,0,0,0,0,3.5ZM10,32.5V59a1.751,1.751,0,0,0,1.75,1.75H31.617A1.751,1.751,0,0,0,33.367,59V45.749A1.751,1.751,0,0,0,31.617,44H21.684a1.75,1.75,0,0,0,0,3.5h8.183v9.752H13.5v-23H31.617a1.75,1.75,0,0,0,0-3.5H11.75A1.751,1.751,0,0,0,10,32.5ZM38.211,59V32.5a1.751,1.751,0,0,1,1.75-1.75H59.828a1.751,1.751,0,0,1,1.75,1.75V59a1.75,1.75,0,1,1-3.5,0V47.5H41.711V59a1.75,1.75,0,0,1-3.5,0Zm3.5-24.754V44H58.078V34.247Zm74.539,0a1.75,1.75,0,0,0,0-3.5H96.383a1.751,1.751,0,0,0-1.75,1.75V59a1.751,1.751,0,0,0,1.75,1.75H116.25a1.75,1.75,0,0,0,0-3.5H98.133V47.5H116.25a1.75,1.75,0,0,0,0-3.5H98.133V34.247ZM33.367,68.993V95.5a1.751,1.751,0,0,1-1.75,1.75H11.75A1.751,1.751,0,0,1,10,95.5v-26.5a1.751,1.751,0,0,1,1.75-1.75H31.617A1.751,1.751,0,0,1,33.367,68.993Zm-3.5,1.75H13.5v23H29.867Zm64.766-1.75a1.751,1.751,0,0,1,1.75-1.75H110.25a7.759,7.759,0,0,1,7.75,7.75v1.252a7.763,7.763,0,0,1-5.714,7.479A14.985,14.985,0,0,1,118,95.5a1.75,1.75,0,1,1-3.5,0A11.515,11.515,0,0,0,103,84H98.133V95.5a1.75,1.75,0,0,1-3.5,0Zm3.5,11.5H110.25a4.255,4.255,0,0,0,4.25-4.25V74.993a4.255,4.255,0,0,0-4.25-4.25H98.133ZM88.039,60.751A1.751,1.751,0,0,0,89.789,59V32.5a1.75,1.75,0,0,0-2.9-1.317l-8.782,7.682L69.324,31.18a1.75,1.75,0,0,0-2.9,1.317V59a1.75,1.75,0,1,0,3.5,0V36.353L76.953,42.5a1.749,1.749,0,0,0,2.3,0l7.031-6.151V59A1.751,1.751,0,0,0,88.039,60.751ZM66.422,95.5a1.751,1.751,0,0,0,1.75,1.75H88.039a1.75,1.75,0,0,0,0-3.5H69.922V84H88.039a1.75,1.75,0,0,0,0-3.5H69.922V70.743H88.039a1.75,1.75,0,0,0,0-3.5H68.172a1.751,1.751,0,0,0-1.75,1.75Zm-5.98-28.142a1.75,1.75,0,0,0-2.253,1.024l-8.3,22.132L41.6,68.379a1.75,1.75,0,0,0-3.278,1.228l9.934,26.5a1.75,1.75,0,0,0,3.277,0l9.934-26.5A1.749,1.749,0,0,0,60.442,67.355Z" fill="url(#a)"/></svg>
