<svg height="512" viewBox="0 0 128 128" width="512" xmlns="http://www.w3.org/2000/svg" xmlns:xlink="http://www.w3.org/1999/xlink"><linearGradient id="a" gradientUnits="userSpaceOnUse" x1="76.007" x2="39.661" y1="76.007" y2="39.661"><stop offset="0" stop-color="#b660e9"/><stop offset="1" stop-color="#ffdd46"/></linearGradient><path d="m90.254 44.192a1.747 1.747 0 0 0 -2.375.7l-16.379 29.952-33.758-26.525 10.951-3.66a1.75 1.75 0 0 0 -1.109-3.32l-14.031 4.69a1.75 1.75 0 0 0 -.527 3.036l16.982 13.344v12.529a1.749 1.749 0 0 0 2.825 1.38l7.475-5.818 10.653 8.371a1.751 1.751 0 0 0 2.617-.536l17.372-31.768a1.75 1.75 0 0 0 -.696-2.375zm-36.746 27.166v-6.2l3.964 3.115zm48.5-45.018-8 14.634a1.75 1.75 0 0 1 -3.071-1.68l4.188-7.658-36.38 26.927a1.749 1.749 0 1 1 -2.082-2.812l33.9-25.092-27.936 9.341a1.75 1.75 0 0 1 -1.109-3.32l38.4-12.84a1.75 1.75 0 0 1 2.09 2.5zm-49.019 15.038a1.751 1.751 0 0 1 1.105-2.215l1.2-.4a1.75 1.75 0 1 1 1.106 3.317l-1.2.4a1.707 1.707 0 0 1 -.555.091 1.751 1.751 0 0 1 -1.656-1.193zm-22.589 57.357c-.421 1.318-.816 2.725-1.174 4.182a1.75 1.75 0 0 1 -3.4-.834c.376-1.535.794-3.02 1.24-4.414a1.75 1.75 0 1 1 3.334 1.066zm16.229-18.841a10.146 10.146 0 0 0 -6.712.348 17.877 17.877 0 0 1 2.983-6.542 1.75 1.75 0 0 0 -2.749-2.165c-.2.254-3.939 5.073-3.993 10.934a25.09 25.09 0 0 0 -6.329 8.331 1.75 1.75 0 0 0 3.125 1.578 24.24 24.24 0 0 1 3.85-5.7q.117.351.257.7a8.582 8.582 0 0 0 8.812 5.659 6.682 6.682 0 0 0 5.887-6.081c.408-3.099-1.702-6.005-5.131-7.062zm1.661 6.606a3.235 3.235 0 0 1 -2.853 3.065 5.081 5.081 0 0 1 -5.126-3.487 8.888 8.888 0 0 1 -.518-1.853 7.249 7.249 0 0 1 5.805-.991c1.766.549 2.873 1.892 2.692 3.266z" fill="url(#a)"/></svg>