<svg height="512" viewBox="0 0 128 128" width="512" xmlns="http://www.w3.org/2000/svg" xmlns:xlink="http://www.w3.org/1999/xlink"><linearGradient id="a" gradientUnits="userSpaceOnUse" x1="103.251" x2="40.043" y1="98.452" y2="35.244"><stop offset="0" stop-color="#b660e9"/><stop offset="1" stop-color="#ffdd46"/></linearGradient><path d="m52.3 56.366.962.962a1.75 1.75 0 0 1 -2.473 2.472l-.963-.963a1.75 1.75 0 0 1 2.474-2.471zm32.674 13.134a1.751 1.751 0 0 0 1.75-1.75v-.756a1.75 1.75 0 0 0 -3.5 0v.756a1.751 1.751 0 0 0 1.75 1.75zm13.5 33a1.751 1.751 0 0 1 -1.75 1.75h-34.072a33.147 33.147 0 0 1 -16.08-4.159 1.75 1.75 0 0 1 1.7-3.059 29.527 29.527 0 0 0 20.717 3.022v-1.916l-32.225-32.238a1.75 1.75 0 1 1 2.476-2.474l29.75 29.761v-15.187l-13.081-13.077a1.75 1.75 0 0 1 2.474-2.475l10.607 10.607v-5.339l-21.845-21.844a29.918 29.918 0 0 0 -3.13 2.208l3.577 3.577a1.75 1.75 0 1 1 -2.474 2.475l-3.689-3.689a30.8 30.8 0 0 0 -2.359 2.746l27.804 27.811a1.75 1.75 0 1 1 -2.474 2.476l-27.319-27.326a28.34 28.34 0 0 0 -2.125 4.441 29.368 29.368 0 0 0 -1.934 10.529 29.715 29.715 0 0 0 9.6 21.835 1.75 1.75 0 1 1 -2.367 2.578 33.221 33.221 0 0 1 -10.733-24.413 32.842 32.842 0 0 1 2.16-11.766 32.082 32.082 0 0 1 3.618-6.939l.014-.021.014-.022a34.321 34.321 0 0 1 4.872-5.625c.016-.014.03-.03.046-.045s.1-.091.126-.111a33.356 33.356 0 0 1 6.192-4.444 32.613 32.613 0 0 1 9.528-3.5l-2.95-6.663a4.179 4.179 0 1 1 3.2-1.424l6.449 14.55a1.749 1.749 0 0 1 -.892 2.308 1.732 1.732 0 0 1 -.708.151 1.751 1.751 0 0 1 -1.6-1.042l-2.036-4.6a29.182 29.182 0 0 0 -7.183 2.22l18.618 18.62v-20.576a29.519 29.519 0 0 0 -3.517-.57 1.75 1.75 0 1 1 .327-3.485 32.513 32.513 0 0 1 12.269 3.664l6.475-11.043a3.941 3.941 0 1 1 3.3 1.8c-.1 0-.192-.012-.289-.02l-6.48 11.063a33.414 33.414 0 0 1 5.136 4.235l.007.007a33.062 33.062 0 0 1 1.03 45.471 2.588 2.588 0 0 1 -.223.256c-.221.247-.51.537-.814.828l-.028.027a32.425 32.425 0 0 1 -4.8 4.022 27.244 27.244 0 0 1 -2.7 1.663c-.4.227-.825.431-1.243.643h19.288a1.751 1.751 0 0 1 1.75 1.748zm-45.8-74.379a.616.616 0 0 0 .343.326.624.624 0 0 0 .474-.011.62.62 0 0 0 -.028-1.144.636.636 0 0 0 -.224-.042.611.611 0 0 0 -.25.054.62.62 0 0 0 -.312.817zm35.226 58.504-1.174-1.174v2.949c.412-.574.799-1.169 1.174-1.775zm-.511-57.925a.472.472 0 0 0 .221.293.48.48 0 0 0 .658-.172.482.482 0 0 0 -.415-.725.482.482 0 0 0 -.417.238.473.473 0 0 0 -.047.366zm-10.383 16.489a29.466 29.466 0 0 0 -4.516-2.017v55.9c.229-.08.463-.154.686-.238a26.969 26.969 0 0 0 2.931-1.334v-47.062a1.75 1.75 0 0 1 3.5 0v44.972a29.166 29.166 0 0 0 3.617-2.992v-19a1.75 1.75 0 0 1 3.5 0v7.082l2.895 2.9a29.626 29.626 0 0 0 -2.895-29.551v6.9a1.75 1.75 0 0 1 -3.5 0v-10.926a29.894 29.894 0 0 0 -6.218-4.634z" fill="url(#a)"/></svg>