<svg height="512" viewBox="0 0 128 128" width="512" xmlns="http://www.w3.org/2000/svg" xmlns:xlink="http://www.w3.org/1999/xlink"><linearGradient id="a" gradientUnits="userSpaceOnUse" x1="115.587" x2="12.413" y1="115.584" y2="12.41"><stop offset="0" stop-color="#979fef"/><stop offset="1" stop-color="#ff8fb8"/></linearGradient><path d="m73.214 64a9.214 9.214 0 1 0 -9.214 9.211 9.225 9.225 0 0 0 9.214-9.211zm-9.214 5.711a5.714 5.714 0 1 1 5.714-5.711 5.721 5.721 0 0 1 -5.714 5.711zm52.232 21.123c.6 1.556 1.117 3.088 1.544 4.553a1.75 1.75 0 1 1 -3.359.981c-.4-1.373-.89-2.814-1.452-4.281a1.75 1.75 0 0 1 3.267-1.253zm11.768-77.584a13.25 13.25 0 1 0 -26.073 3.278l-16.4 16.4-5.6-5.6a1.805 1.805 0 0 0 -1.266-.525h-15.425c-22.728-16.917-42.645-22.573-50.823-14.393s-2.523 28.1 14.4 50.824v15.427a1.766 1.766 0 0 0 .512 1.254l5.61 5.609-16.4 16.4a13.1 13.1 0 0 0 -9.359 1.049 1.75 1.75 0 0 0 1.609 3.108 9.642 9.642 0 0 1 4.468-1.081 9.75 9.75 0 1 1 -9.75 9.75 1.75 1.75 0 0 0 -3.5 0 13.25 13.25 0 1 0 26.073-3.278l16.4-16.4 5.593 5.594a1.762 1.762 0 0 0 1.253.526h15.445c15.812 11.769 30.263 18.094 40.346 18.093 4.409 0 7.986-1.209 10.474-3.7a12.3 12.3 0 0 0 3.1-5.409 1.75 1.75 0 0 0 -3.366-.96 8.825 8.825 0 0 1 -2.2 3.894c-6.351 6.354-23.058 1.547-42.371-11.921h7.937a1.847 1.847 0 0 0 1.253-.526l2.781-2.781c8.987 5.447 17.01 8.6 22.148 8.684h.028a1.751 1.751 0 0 0 1.75-1.75c0-3.793-2.314-11.556-8.711-22.15l2.752-2.751a1.891 1.891 0 0 0 .512-1.254v-7.92c2.073 2.976 3.964 5.928 5.649 8.817a1.75 1.75 0 1 0 3.023-1.763 140.717 140.717 0 0 0 -8.672-13.03v-15.432a1.746 1.746 0 0 0 -.528-1.269l-5.591-5.591 16.4-16.4a13.2 13.2 0 0 0 16.519-12.823zm-103.379 94.725a13.338 13.338 0 0 0 -4.6-4.6l15.384-15.375 4.595 4.6zm73.07-42.64v10.723l-15.573-6.45v-11.221l15.573-6.451zm-48.991 31.014-8.526-8.526-3.535-3.536-4.994-4.994 15.573-6.45 7.934 7.934zm-11.039-58.609-5.04 5.04c-4.475-7.56-6.893-13.859-7.563-17.664 4.4.713 10.738 3.411 17.682 7.544zm-4.146 9.095 13.27-13.271 1.915-1.919 6.451 15.574-7.934 7.934-15.569-6.453zm42.546-16.529-6.451 15.573h-11.221l-6.45-15.573zm-45.752 32.353v-10.723l15.573 6.451v11.221l-15.573 6.45zm27.635 15.957-8.562-8.563v-12.111l8.562-8.563h12.112l8.562 8.563v12.111l-8.562 8.563zm22.835-5.774 15.573 6.45-1.87 1.87-13.271 13.271-1.911 1.916-6.455-15.573zm0-17.689-7.934-7.934 6.455-15.574 8.53 8.531 3.53 3.534 4.992 4.99zm-65.891-40.269c1.87-1.87 4.636-2.773 8.1-2.773 8.31 0 20.641 5.192 34.268 14.7h-7.919a1.8 1.8 0 0 0 -1.268.525l-2.781 2.782c-8.987-5.448-17.01-8.6-22.148-8.685a1.752 1.752 0 0 0 -1.778 1.75c0 3.793 2.314 11.556 8.711 22.15l-2.736 2.735a1.874 1.874 0 0 0 -.528 1.27v7.923c-13.468-19.318-18.275-36.024-11.921-42.377zm50.451 82.805h-13.4l6.45-15.573h11.221l6.451 15.573zm37.6 5.189c-4.4-.713-10.738-3.411-17.682-7.544l5.079-5.08 5.04-5.04c4.478 7.56 6.895 13.859 7.566 17.664zm-10.339-62.878-4.6-4.6 15.38-15.38a13.338 13.338 0 0 0 4.6 4.6zm22.15-17a9.75 9.75 0 1 1 9.75-9.75 9.761 9.761 0 0 1 -9.75 9.75z" fill="url(#a)"/></svg>