<svg height="512" viewBox="0 0 128 128" width="512" xmlns="http://www.w3.org/2000/svg" xmlns:xlink="http://www.w3.org/1999/xlink"><linearGradient id="a" gradientUnits="userSpaceOnUse" x1="106.861" x2="27.134" y1="130.673" y2="50.946"><stop offset="0" stop-color="#fd4e26"/><stop offset="1" stop-color="#ffbf16"/></linearGradient><path d="m118.5 88.923h-40.014a24.456 24.456 0 0 0 8.687-8.864 39.776 39.776 0 0 0 2.4-34.567l-2.013-5.064a1.75 1.75 0 0 0 -3.315.191l-2.624 9.723a14.249 14.249 0 0 0 -7.476-8.042 10.745 10.745 0 0 1 -5.384-14.092l6.063-13.708a1.75 1.75 0 0 0 -2.741-2.034l-9.283 7.97a43.022 43.022 0 0 0 -14.68 27.735l-4.3-10.483a1.748 1.748 0 0 0 -1.62-1.088h-.01a1.749 1.749 0 0 0 -1.616 1.111l-2.068 5.274a42.441 42.441 0 0 0 1.048 33.3l.181.39a27.336 27.336 0 0 0 11.389 12.248h-41.624c-5.327 0-9.5 5.938-9.5 13.519s4.173 13.52 9.5 13.52h21.75a1.75 1.75 0 0 0 0-3.5h-15.325a16.487 16.487 0 0 0 3.075-10.02c0-.548-.028-1.084-.07-1.614h27.7a1.75 1.75 0 0 0 0-3.5h-28.316a14.336 14.336 0 0 0 -2.389-4.905h102.575c3.252 0 6 4.589 6 10.019a15.773 15.773 0 0 1 -.2 2.481h-26.425a1.75 1.75 0 0 0 0 3.5h25.393c-1.107 2.43-2.847 4.039-4.768 4.039h-56.219a1.75 1.75 0 1 0 0 3.5h56.219c5.327 0 9.5-5.939 9.5-13.52s-4.173-13.519-9.5-13.519zm-103 13.519c0 5.431-2.748 10.02-6 10.02s-6-4.589-6-10.02 2.748-10.019 6-10.019 6 4.589 6 10.019zm48.887-13.519a23.814 23.814 0 0 1 -21.48-13.729l-.181-.389a38.925 38.925 0 0 1 -.961-30.54l.474-1.211 5.911 14.423a1.75 1.75 0 0 0 3.362-.827 39.5 39.5 0 0 1 13.569-33.559l3.413-2.933-2.934 6.642a14.254 14.254 0 0 0 7.14 18.692 10.744 10.744 0 0 1 6.3 9.68l.037 4.983a1.75 1.75 0 0 0 3.44.443l3.774-13.989.071.178a36.293 36.293 0 0 1 -2.192 31.539 21.017 21.017 0 0 1 -18.227 10.6zm-13.762 25.289a1.75 1.75 0 0 1 -1.75 1.75h-4.219a1.75 1.75 0 1 1 0-3.5h4.219a1.75 1.75 0 0 1 1.75 1.75zm-1.25-5.789a1.75 1.75 0 0 1 0-3.5h20a1.75 1.75 0 0 1 0 3.5zm30-7.595a1.75 1.75 0 0 1 0-3.5h12.75a1.75 1.75 0 0 1 0 3.5zm-15.375-17.665c-6.789 0-12.312-4.822-12.312-10.75 0-5.288 9.091-17.638 10.914-20.06a1.75 1.75 0 1 1 2.8 2.1c-3.947 5.248-10.21 14.764-10.21 17.956 0 4 3.953 7.25 8.812 7.25s8.813-3.252 8.813-7.25c0-.527-.222-1.848-1.706-4.764a1.75 1.75 0 0 1 3.119-1.588c1.4 2.758 2.087 4.836 2.087 6.352-.004 5.932-5.528 10.754-12.317 10.754z" fill="url(#a)"/></svg>