<?xml version="1.0"?>
<svg xmlns="http://www.w3.org/2000/svg" xmlns:xlink="http://www.w3.org/1999/xlink" width="512" height="512" viewBox="0 0 128 128"><defs><linearGradient id="a" x1="107.304" y1="84.072" x2="20.695" y2="-2.537" gradientUnits="userSpaceOnUse"><stop offset="0" stop-color="#fd4e26"/><stop offset="1" stop-color="#ffbf16"/></linearGradient></defs><path d="M48.625,79.549a1.749,1.749,0,0,1-1.75,1.75H45a1.75,1.75,0,0,1,0-3.5h1.875A1.749,1.749,0,0,1,48.625,79.549ZM83,77.8H81.125a1.75,1.75,0,0,0,0,3.5H83a1.75,1.75,0,0,0,0-3.5ZM45.818,31.33A15.855,15.855,0,0,1,49.1,33.265a1.75,1.75,0,0,0,2.136-2.772,19.337,19.337,0,0,0-4-2.364,1.75,1.75,0,0,0-1.414,3.2Zm81.71-8.532c-6.045,13.907-19.554,14.134-29.418,14.3-6.356.106-12.357.207-15.235,3.343-1.6,1.74-2.582,4.692-2.95,8.756a32.154,32.154,0,0,1,6.005,4.394,27.821,27.821,0,0,1,21.13-9.608h10.686a1.75,1.75,0,0,1,1.75,1.75,27.975,27.975,0,0,1-23.1,27.619,15.156,15.156,0,0,1-6.777,16.711l-.635.383a13.424,13.424,0,0,0-6.429,11.413A16.862,16.862,0,0,1,65.709,118.7H62.291a16.862,16.862,0,0,1-16.843-16.843,13.421,13.421,0,0,0-6.429-11.412l-.635-.386a15.149,15.149,0,0,1-6.777-16.709A27.975,27.975,0,0,1,8.5,45.733a1.75,1.75,0,0,1,1.75-1.75H20.94a27.821,27.821,0,0,1,21.13,9.608A32.122,32.122,0,0,1,48.075,49.2c-.368-4.064-1.354-7.016-2.95-8.755C42.247,37.305,36.246,37.2,29.894,37.1,20.026,36.932,6.517,36.705.473,22.8a5.7,5.7,0,0,1,.1-4.756,5.759,5.759,0,0,1,10.426.1,10.414,10.414,0,0,0,7.566,6.409,3.122,3.122,0,0,0,2.784-.6,3.2,3.2,0,0,0,1.2-2.665l-.288-5.962a5.75,5.75,0,0,1,11.486-.553l.389,8.052a3.179,3.179,0,0,0,2.91,3.032,1.751,1.751,0,0,1-.268,3.491,6.686,6.686,0,0,1-6.138-6.355l-.389-8.052A2.255,2.255,0,0,0,27.894,12.8a2.249,2.249,0,0,0-2.139,2.355l.288,5.962a6.666,6.666,0,0,1-2.5,5.556,6.593,6.593,0,0,1-5.883,1.261,13.939,13.939,0,0,1-9.873-8.389,2.218,2.218,0,0,0-2.6-1.193,2.274,2.274,0,0,0-1.465,1.211A2.168,2.168,0,0,0,3.683,21.4c5.145,11.84,16.366,12.029,26.266,12.2,7.129.12,13.86.233,17.754,4.478,1.923,2.095,3.16,5.285,3.707,9.474a32.3,32.3,0,0,1,4.328-1.487,27.954,27.954,0,0,0-1.247-5.082,1.75,1.75,0,0,1,3.3-1.177,31.513,31.513,0,0,1,1.385,5.556,31.163,31.163,0,0,1,9.659,0c.859-5.375,2.683-9.549,5.57-12.695,4.846-5.28,11.392-6.413,16.554-6.811a3.179,3.179,0,0,0,2.91-3.032l.389-8.052a5.75,5.75,0,1,1,11.486.553l-.288,5.962a3.2,3.2,0,0,0,1.2,2.665,3.117,3.117,0,0,0,2.784.6A10.413,10.413,0,0,0,117,18.142,5.756,5.756,0,0,1,127.528,22.8Zm-95,47.147.323-1.185a31.924,31.924,0,0,1,1.061-3.145A19.946,19.946,0,0,1,18.522,54.5,1.75,1.75,0,0,1,20.1,51.984h.844a20.075,20.075,0,0,1,15.9,7.867c.086-.134.16-.275.248-.408a32.547,32.547,0,0,1,2.536-3.332A24.356,24.356,0,0,0,20.94,47.483H12.064A24.469,24.469,0,0,0,32.531,69.945ZM23.3,55.654a16.426,16.426,0,0,0,10.884,6.472A16.607,16.607,0,0,0,23.3,55.654ZM62.25,115.2V103.731a4.885,4.885,0,0,1-1.963-1.376l-2.013-2.343a4.857,4.857,0,0,1,.6-6.932A63.534,63.534,0,0,0,39,63.043a28.573,28.573,0,0,0-2.767,6.639L35.024,74.1A11.64,11.64,0,0,0,40.2,87.068l.635.386a16.936,16.936,0,0,1,8.115,14.405A13.357,13.357,0,0,0,62.25,115.2Zm-.734-19.682c-.03.011-.056.026-.086.035h-.01a1.39,1.39,0,0,0-.489,2.178l2.012,2.344a1.394,1.394,0,0,0,2.114,0l2.012-2.344a1.39,1.39,0,0,0-.489-2.178h-.01c-.03-.009-.056-.024-.086-.035a1.391,1.391,0,0,0-.471-.087H61.987A1.391,1.391,0,0,0,61.516,95.518ZM92.977,74.1l-1.208-4.415A28.562,28.562,0,0,0,89,63.043a63.86,63.86,0,0,0-5.657,5.386,1.751,1.751,0,0,1-2.567-2.381,67.585,67.585,0,0,1,6.3-5.968,28.756,28.756,0,0,0-9.7-8.289,1.691,1.691,0,0,1-.214-.115,28.759,28.759,0,0,0-26.343,0,1.775,1.775,0,0,1-.206.111,28.766,28.766,0,0,0-9.7,8.289A67.016,67.016,0,0,1,62.184,91.931h3.635a67.323,67.323,0,0,1,9.014-18.495,1.751,1.751,0,0,1,2.875,2,63.824,63.824,0,0,0-8.582,17.646,4.857,4.857,0,0,1,.6,6.931l-2.013,2.343a4.885,4.885,0,0,1-1.963,1.376V115.2a13.357,13.357,0,0,0,13.3-13.341,16.939,16.939,0,0,1,8.115-14.406l.635-.384A11.644,11.644,0,0,0,92.977,74.1ZM88.371,56.111a32.547,32.547,0,0,1,2.536,3.332c.088.133.162.274.248.408a20.075,20.075,0,0,1,15.905-7.867h.844a1.749,1.749,0,0,1,1.573,2.517A19.943,19.943,0,0,1,94.085,65.615a31.658,31.658,0,0,1,1.06,3.145l.324,1.185a24.467,24.467,0,0,0,20.466-22.462H107.06A24.356,24.356,0,0,0,88.371,56.111Zm16.326-.457a16.611,16.611,0,0,0-10.885,6.472A16.425,16.425,0,0,0,104.7,55.654Zm19.578-36.09a2.27,2.27,0,0,0-1.458-1.209,2.216,2.216,0,0,0-2.609,1.191,13.939,13.939,0,0,1-9.873,8.389,6.6,6.6,0,0,1-5.883-1.261,6.663,6.663,0,0,1-2.5-5.556l.288-5.962a2.25,2.25,0,0,0-4.494-.217l-.389,8.052a6.687,6.687,0,0,1-6.138,6.355c-6.805.523-11.065,2.223-14.244,5.687-2.434,2.653-3.978,6.28-4.715,11.031a32.148,32.148,0,0,1,4.324,1.486c.548-4.189,1.784-7.379,3.708-9.475,3.894-4.244,10.625-4.357,17.751-4.477,9.9-.166,21.124-.355,26.27-12.195A2.176,2.176,0,0,0,124.275,19.564Z" fill="url(#a)"/></svg>
