<svg height="512" viewBox="0 0 128 128" width="512" xmlns="http://www.w3.org/2000/svg" xmlns:xlink="http://www.w3.org/1999/xlink"><linearGradient id="a" gradientUnits="userSpaceOnUse" x1="99.278" x2="18.164" y1="112.084" y2="30.97"><stop offset="0" stop-color="#df6017"/><stop offset="1" stop-color="#f3d232"/></linearGradient><path d="m102.463 62.858a10.525 10.525 0 0 0 -7.463-3.088h-2v-12.3a1.75 1.75 0 0 0 -1.75-1.75h-67.06a1.75 1.75 0 0 0 -1.75 1.75v13.655a1.75 1.75 0 0 0 3.5 0v-5.9h63.56v35.305a22.221 22.221 0 0 1 -13 20.22h-37.561a22.221 22.221 0 0 1 -13-20.22v-15.113a1.75 1.75 0 0 0 -3.5 0v15.113a25.733 25.733 0 0 0 10.779 20.94 10.757 10.757 0 0 0 -6.914 10.03 1.749 1.749 0 0 0 1.75 1.75h59.334a1.75 1.75 0 0 0 0-3.5h-57.37a7.263 7.263 0 0 1 7.037-5.5h41.333a7.219 7.219 0 0 1 4.047 1.233 1.75 1.75 0 0 0 1.957-2.9 10.708 10.708 0 0 0 -2.157-1.121 25.732 25.732 0 0 0 10.765-20.932v-9.63h2a10.568 10.568 0 0 0 7.463-18.042zm-76.523-11.134v-2.5h63.56v2.5zm69.06 25.676h-2v-14.13h2a7.065 7.065 0 0 1 0 14.13zm-72.56-7.692v-2.583a1.75 1.75 0 0 1 3.5 0v2.583a1.75 1.75 0 0 1 -3.5 0zm10.26 33.066a19.535 19.535 0 0 1 -4.262-12.243 1.75 1.75 0 0 1 3.5 0 16.069 16.069 0 0 0 3.506 10.07 1.75 1.75 0 1 1 -2.744 2.173zm10.655-80.9c0-1.126-.475-1.632-1.463-2.581a6.634 6.634 0 0 1 -2.537-5.1 6.633 6.633 0 0 1 2.537-5.1c.988-.949 1.463-1.455 1.463-2.582a1.75 1.75 0 0 1 3.5 0 6.634 6.634 0 0 1 -2.538 5.105c-.988.95-1.462 1.456-1.462 2.582s.474 1.63 1.462 2.58a6.632 6.632 0 0 1 2.538 5.1 6.64 6.64 0 0 1 -2.537 5.107c-.989.949-1.463 1.456-1.463 2.583s.474 1.633 1.463 2.583a6.636 6.636 0 0 1 2.537 5.106 1.75 1.75 0 0 1 -3.5 0c0-1.127-.475-1.634-1.463-2.583a6.408 6.408 0 0 1 0-10.213c.992-.956 1.467-1.461 1.467-2.59zm14.612 0c0-1.126-.474-1.632-1.462-2.581a6.631 6.631 0 0 1 -2.538-5.1 6.633 6.633 0 0 1 2.537-5.1c.989-.949 1.463-1.455 1.463-2.582a1.75 1.75 0 0 1 3.5 0 6.636 6.636 0 0 1 -2.537 5.105c-.988.95-1.463 1.456-1.463 2.582s.475 1.63 1.462 2.58a6.632 6.632 0 0 1 2.538 5.1 6.64 6.64 0 0 1 -2.537 5.107c-.988.949-1.463 1.456-1.463 2.583s.475 1.633 1.463 2.583a6.636 6.636 0 0 1 2.537 5.106 1.75 1.75 0 0 1 -3.5 0c0-1.127-.474-1.634-1.463-2.583a6.408 6.408 0 0 1 0-10.213c.996-.956 1.467-1.461 1.467-2.59zm14.612 0c0-1.126-.474-1.632-1.462-2.581a6.631 6.631 0 0 1 -2.538-5.1 6.634 6.634 0 0 1 2.538-5.1c.988-.949 1.462-1.455 1.462-2.582a1.75 1.75 0 0 1 3.5 0 6.633 6.633 0 0 1 -2.537 5.105c-.988.95-1.463 1.456-1.463 2.582s.475 1.63 1.462 2.58a6.629 6.629 0 0 1 2.538 5.1 6.64 6.64 0 0 1 -2.537 5.107c-.988.949-1.463 1.456-1.463 2.583s.475 1.633 1.463 2.583a6.636 6.636 0 0 1 2.537 5.106 1.75 1.75 0 0 1 -3.5 0c0-1.127-.474-1.634-1.462-2.583a6.406 6.406 0 0 1 0-10.213c.992-.956 1.466-1.461 1.466-2.59z" fill="url(#a)"/></svg>