<?xml version="1.0"?>
<svg xmlns="http://www.w3.org/2000/svg" xmlns:xlink="http://www.w3.org/1999/xlink" width="512" height="512" viewBox="0 0 128 128"><defs><linearGradient id="a" x1="99.498" y1="104.938" x2="28.502" y2="33.942" gradientUnits="userSpaceOnUse"><stop offset="0" stop-color="#df6017"/><stop offset="1" stop-color="#f3d232"/></linearGradient></defs><path d="M64,29.25A9.25,9.25,0,1,0,54.75,20,9.26,9.26,0,0,0,64,29.25Zm0-15A5.75,5.75,0,1,1,58.25,20,5.757,5.757,0,0,1,64,14.25ZM96.724,56.074a1.75,1.75,0,1,0-2.754,2.159,37.675,37.675,0,0,1,8.088,23.459A38.041,38.041,0,1,1,83.733,49.143a1.75,1.75,0,1,0,1.817-2.991,41.333,41.333,0,0,0-13.8-5.273V37.52a7.688,7.688,0,0,0-1.022-3.842,15.249,15.249,0,1,0-13.451,0A7.691,7.691,0,0,0,56.25,37.52v3.35a41.555,41.555,0,1,0,49.308,40.822A41.138,41.138,0,0,0,96.724,56.074ZM52.25,20A11.75,11.75,0,1,1,68.156,30.983a7.709,7.709,0,0,0-8.305,0A11.817,11.817,0,0,1,52.25,20Zm7.5,17.52A4.255,4.255,0,0,1,64,33.27a4.258,4.258,0,0,1,4.25,4.25v2.856a39.639,39.639,0,0,0-8.5-.025ZM88.4,52.486A1.75,1.75,0,0,1,90.646,49.8c.694.58,1.381,1.2,2.042,1.826a1.75,1.75,0,1,1-2.416,2.532C89.666,53.58,89.036,53.017,88.4,52.486ZM64,46.135A35.558,35.558,0,1,0,99.558,81.692,35.6,35.6,0,0,0,64,46.135ZM65.75,113.7v-4.2a1.75,1.75,0,0,0-3.5,0v4.2A32.1,32.1,0,0,1,31.992,83.442h4.2a1.75,1.75,0,0,0,0-3.5h-4.2A32.1,32.1,0,0,1,62.25,49.684v4.2a1.75,1.75,0,0,0,3.5,0v-4.2A32.1,32.1,0,0,1,96.008,79.942h-4.2a1.75,1.75,0,0,0,0,3.5h4.2A32.1,32.1,0,0,1,65.75,113.7ZM46.773,59.808a1.75,1.75,0,0,1-.135,2.471A26.339,26.339,0,0,0,43.4,65.758a1.75,1.75,0,1,1-2.766-2.144A29.959,29.959,0,0,1,44.3,59.672,1.75,1.75,0,0,1,46.773,59.808Zm31.22,5.485L63.7,73.958a7.741,7.741,0,0,0-4.013,14.169L54.3,91.394l1.188-1.961a1.749,1.749,0,1,0-2.992-1.814L47.6,95.683a1.749,1.749,0,0,0,2.4,2.4l14.286-8.659a7.747,7.747,0,0,0,7.442-7.44L80.4,67.7a1.75,1.75,0,0,0-2.4-2.4ZM64,85.942a4.25,4.25,0,1,1,4.25-4.25A4.254,4.254,0,0,1,64,85.942Zm6.435-8.562a7.782,7.782,0,0,0-2.125-2.124l5.395-3.271Z" fill="url(#a)"/></svg>
