<svg id="Layer_1" enable-background="new 0 0 128 128" viewBox="0 0 128 128" xmlns="http://www.w3.org/2000/svg" xmlns:xlink="http://www.w3.org/1999/xlink"><linearGradient id="SVGID_1_" gradientTransform="matrix(1 0 0 -1 0 130)" gradientUnits="userSpaceOnUse" x1="113.73" x2="14.268" y1="16.27" y2="115.732"><stop offset="0" stop-color="#df6017"/><stop offset="1" stop-color="#f3d232"/></linearGradient><path d="m84.5 44.2c.8.6 1 1.6.4 2.4l-1.8 2.6c-.6.8-1.6 1-2.4.4s-1-1.6-.4-2.4l1.8-2.6c.5-.7 1.6-.9 2.4-.4zm1.2-4.8 6.1-8.7c2.6-3.7 4-7.9 4-13.1h-63.5c0 5 1.4 9.4 4 13.1l22.4 32.3c.4.6.4 1.4 0 2l-22.5 32.3c-2.6 3.7-4 8.1-4 13.1h18l7.4-10.5c2.5-3.5 7.3-4.3 10.8-1.8.7.5 1.3 1.1 1.8 1.8l7.4 10.5h18c0-5.1-1.4-9.4-4-13.1l-22.3-32.3c-.4-.6-.4-1.4 0-2l7.4-10.7c.6-.8 1.6-1 2.4-.4s1 1.6.4 2.4l-6.6 9.7 21.8 31.3c3 4.3 4.6 9.1 4.6 15.1h4.6c1 0 1.8.8 1.8 1.8v9c0 1-.8 1.7-1.8 1.8h-55.2c-1 0-1.8-.8-1.8-1.8s.8-1.8 1.8-1.8h53.4v-5.5h-76.2v5.5h13.1c1 0 1.8.8 1.8 1.8s-.8 1.8-1.8 1.8h-14.8c-1 0-1.7-.8-1.8-1.8v-9c0-1 .8-1.8 1.8-1.8h4.6c0-5.9 1.6-10.8 4.6-15.1l21.7-31.3-21.7-31.3c-3-4.3-4.6-9.1-4.6-15.1h-4.6c-1 0-1.8-.8-1.8-1.8v-9c0-1 .8-1.7 1.8-1.8h79.6c1 0 1.7.8 1.8 1.8v9c0 1-.8 1.8-1.8 1.8h-4.6c0 6-1.6 10.8-4.6 15.1l-6.1 8.7c-.6.8-1.6 1-2.4.4s-.9-1.6-.4-2.4zm-31.2 71h19l-6-8.5c-1.4-1.9-4-2.4-5.9-1-.4.3-.7.6-1 1zm-28.6-96.3h76.1v-5.5h-76.1zm60.1 15.2-20.2 29.2v8.9c0 .7-.6 1.8-1.8 1.8-1.1 0-1.7-.9-1.7-1.8 0-2.2 0-8.9 0-8.9l-20.3-29.2c-.6-.8-.4-1.9.4-2.4.3-.2.6-.3 1-.3h41.1c1 0 1.8.8 1.7 1.8.1.3 0 .6-.2.9zm-4.8.8h-34.4l17.2 24.8zm-17.2 50.9c-1 0-1.8.8-1.8 1.8s.8 1.8 1.8 1.8 1.8-.8 1.8-1.8-.8-1.8-1.8-1.8zm0-7.7c-1 0-1.8.8-1.8 1.8s.8 1.8 1.8 1.8 1.8-.8 1.8-1.8c-.1-1-.8-1.8-1.8-1.8zm0 15.5c-1 0-1.8.8-1.8 1.8s.8 1.8 1.8 1.8 1.8-.8 1.8-1.8c0-1.1-.8-1.8-1.8-1.8z" fill="url(#SVGID_1_)"/></svg>