<?xml version="1.0"?>
<svg xmlns="http://www.w3.org/2000/svg" xmlns:xlink="http://www.w3.org/1999/xlink" width="512" height="512" viewBox="0 0 128 128"><defs><linearGradient id="a" x1="118.071" y1="118.231" x2="9.929" y2="10.089" gradientUnits="userSpaceOnUse"><stop offset="0" stop-color="#df6017"/><stop offset="1" stop-color="#f3d232"/></linearGradient></defs><path d="M77.92,30.189a1.75,1.75,0,0,1,1.75-1.75H92.333a1.75,1.75,0,0,1,0,3.5H79.67A1.749,1.749,0,0,1,77.92,30.189Zm45.33-9.128v86.2c0,8.817-8.582,15.99-19.13,15.99H95.333a1.75,1.75,0,0,1,0-3.5h8.787c8.618,0,15.63-5.6,15.63-12.49v-3.384c0-.027-.009-.053-.01-.08-.139-6.77-7.146-12.276-15.62-12.276a1.75,1.75,0,0,1-1.75-1.75V63.54a1.747,1.747,0,0,1,.9-1.529L106.9,60l-3.664-2.158a1.751,1.751,0,0,1-.862-1.508V43.07a1.751,1.751,0,0,1,.9-1.528l5.208-2.9-5.244-3.088a1.751,1.751,0,0,1-.862-1.508V25.94H62.79l-3.8,9.51a1.752,1.752,0,0,1-1.625,1.1h-.017a1.749,1.749,0,0,1-1.619-1.132L52.146,25.94H25.63V71.46a1.751,1.751,0,0,1-.906,1.533L20.5,75.334l4.258,2.5a1.752,1.752,0,0,1,.868,1.512V89.77a1.75,1.75,0,0,1-1.75,1.75C15.406,91.52,8.4,97.026,8.26,103.8c0,.027-.008.053-.01.08v3.384c0,6.886,7.012,12.49,15.63,12.49H36.973l5.579-8.231a1.75,1.75,0,0,1,3.11.432l2.573,7.8H61.376l5.551-11.4a1.8,1.8,0,0,1,1.6-.984,1.749,1.749,0,0,1,1.57,1.026l5.164,11.354H85.833a1.75,1.75,0,0,1,0,3.5H74.13a1.749,1.749,0,0,1-1.593-1.025l-4.092-9-4.4,9.039a1.751,1.751,0,0,1-1.573.983H46.97a1.75,1.75,0,0,1-1.662-1.2l-1.855-5.622-4.1,6.054a1.751,1.751,0,0,1-1.449.769H23.88c-10.548,0-19.13-7.173-19.13-15.99v-50.6a1.75,1.75,0,0,1,3.5,0V94.837a20.21,20.21,0,0,1,13.88-6.75V80.354L16.093,76.8a1.748,1.748,0,0,1,.038-3.037l6-3.334V8.648c-7.8.7-13.88,6-13.88,12.413V37.667a1.75,1.75,0,0,1-3.5,0V21.061c0-8.818,8.582-15.991,19.13-15.991a1.75,1.75,0,0,1,1.75,1.75V22.44H53.35a1.751,1.751,0,0,1,1.629,1.111l.52,1.365,1.909,5.056,2.585-6.451A1.752,1.752,0,0,1,61.61,22.44h40.76V6.82a1.75,1.75,0,0,1,1.75-1.75C114.668,5.07,123.25,12.243,123.25,21.061Zm-3.5,73.776V21.061c0-6.415-6.082-11.716-13.88-12.413v24.4l7.018,4.132a1.749,1.749,0,0,1-.038,3.037l-6.98,3.88V55.33l5.438,3.2a1.749,1.749,0,0,1-.038,3.037l-5.4,3V88.087A20.21,20.21,0,0,1,119.75,94.837ZM6.5,52.166a1.749,1.749,0,0,0,1.75-1.75V44.992a1.75,1.75,0,0,0-3.5,0v5.424A1.749,1.749,0,0,0,6.5,52.166Zm29.164-.585c.873.414,1.91.922,2.985,1.54A1.75,1.75,0,1,0,40.4,50.088c-1.189-.684-2.35-1.251-3.23-1.669a1.75,1.75,0,1,0-1.5,3.162ZM75.092,88.342a1.75,1.75,0,1,0-1.762,3.025,48.311,48.311,0,0,0,6.984,3.343,1.75,1.75,0,0,0,1.254-3.268A44.628,44.628,0,0,1,75.092,88.342ZM64.1,79.212A1.75,1.75,0,1,0,61.449,81.5a46.863,46.863,0,0,0,5.529,5.431,1.751,1.751,0,0,0,2.236-2.694A43.3,43.3,0,0,1,64.1,79.212ZM44.193,54.9a1.75,1.75,0,0,0,.03,2.475,46.747,46.747,0,0,1,4.7,5.443,1.75,1.75,0,0,0,2.8-2.1,50.3,50.3,0,0,0-5.052-5.846A1.749,1.749,0,0,0,44.193,54.9ZM56.013,67a1.75,1.75,0,0,0-2.961,1.867c.969,1.538,1.984,3.228,3.016,5.023q.4.7.816,1.367a1.75,1.75,0,0,0,2.978-1.84c-.258-.416-.51-.842-.76-1.273C58.047,70.306,57.007,68.575,56.013,67Zm31.77,29.9a29.713,29.713,0,0,0,3.7.543l.107,0a1.75,1.75,0,0,0,.1-3.5,26.7,26.7,0,0,1-3.217-.48,1.751,1.751,0,0,0-.692,3.432Zm-57-53.969a1.749,1.749,0,0,0,2.475,0l1.762-1.763,1.763,1.763a1.75,1.75,0,1,0,2.475-2.475L37.5,38.688l1.763-1.763a1.75,1.75,0,1,0-2.475-2.475l-1.763,1.763L33.259,34.45a1.75,1.75,0,0,0-2.475,2.475l1.763,1.763L30.784,40.45A1.751,1.751,0,0,0,30.784,42.925Zm63.957,68.314a1.75,1.75,0,1,0,2.475-2.474L95.453,107l1.763-1.763a1.75,1.75,0,0,0-2.475-2.474l-1.762,1.762-1.763-1.762a1.75,1.75,0,0,0-2.475,2.474L90.5,107l-1.763,1.763a1.75,1.75,0,1,0,2.475,2.474l1.763-1.762Zm-6.079-50.7H70.678a1.75,1.75,0,0,1-1.516-2.625l8.992-15.575a1.751,1.751,0,0,1,3.032,0l8.992,15.575a1.75,1.75,0,0,1-1.516,2.625Zm-3.031-3.5L79.67,46.711,73.709,57.036Z" fill="url(#a)"/></svg>
