<svg height="512" viewBox="0 0 128 128" width="512" xmlns="http://www.w3.org/2000/svg" xmlns:xlink="http://www.w3.org/1999/xlink"><linearGradient id="a" gradientUnits="userSpaceOnUse" x1="96.707" x2="35.892" y1="89.344" y2="28.529"><stop offset="0" stop-color="#b373f0"/><stop offset="1" stop-color="#01ebcd"/></linearGradient><path d="m52.782 94.75a1.75 1.75 0 0 1 -2.226-1.083l-.263-.749a1.75 1.75 0 0 1 3.3-1.171l.274.777a1.752 1.752 0 0 1 -1.085 2.226zm-1.214-8.679c-1.819-5.562-2.563-11.008-.284-19.5.338-1.259.652-2.572.933-3.9a1.75 1.75 0 0 0 -3.424-.725c-.269 1.27-.568 2.522-.89 3.722-2.65 9.878-1.4 16.169.338 21.5a1.75 1.75 0 0 0 1.659 1.198 1.777 1.777 0 0 0 .544-.087 1.751 1.751 0 0 0 1.124-2.208zm41.814-54.3a1.751 1.751 0 0 0 -1.382 2.05c.057.3.111.591.162.887a1.751 1.751 0 0 0 1.722 1.451 1.83 1.83 0 0 0 .3-.026 1.749 1.749 0 0 0 1.424-2.024q-.082-.476-.174-.951a1.749 1.749 0 0 0 -2.052-1.387zm-3.737 35.94a1.752 1.752 0 0 1 -1.517.876h-.008a1.752 1.752 0 0 1 -1.52-.887 28.985 28.985 0 0 0 -4.52-6.233 1.779 1.779 0 0 1 -.179-.179c-4.139-4.062-8.112-4.067-12.252-4.067h-3.784a122.356 122.356 0 0 1 -3.142 13.368c-2.691 8.974.823 24 6.714 28.714 7.191 5.753 6.55 9.863 6.349 10.628a1.748 1.748 0 0 1 -1.692 1.3h-19.5a1.747 1.747 0 0 1 -1.746-1.864 36.44 36.44 0 0 0 -.589-9.645 1.75 1.75 0 1 1 3.432-.686 39.022 39.022 0 0 1 .733 8.695h15.676c-.472-1.2-1.694-3.171-4.854-5.7-7.035-5.628-11.012-22.006-7.879-32.452a118.577 118.577 0 0 0 2.937-12.363h-22.21a1.75 1.75 0 0 1 -1.75-1.75v-20.226h-3.188v16.625a1.75 1.75 0 0 1 -3.5 0v-18.375a1.75 1.75 0 0 1 1.75-1.75h4.938v-1.853a1.749 1.749 0 0 1 1.75-1.75h9.944c-.335-3.159-.664-5.063-.668-5.086a1.75 1.75 0 0 1 1.724-2.051h12.25a1.75 1.75 0 0 1 0 3.5h-10.218c.127.932.28 2.161.431 3.637h16.1c4.14 0 8.112 0 12.252-4.067a1.6 1.6 0 0 1 .18-.179 29.07 29.07 0 0 0 4.511-6.233 1.75 1.75 0 0 1 1.516-.89 1.68 1.68 0 0 1 1.525.876 50.169 50.169 0 0 1 4.187 9.363 1.75 1.75 0 0 1 -3.32 1.093 46.6 46.6 0 0 0 -2.483-6.066 29.571 29.571 0 0 1 -2.8 3.586 49.964 49.964 0 0 1 0 34.113 29.493 29.493 0 0 1 2.8 3.586 46.614 46.614 0 0 0 4.8-21.86 1.75 1.75 0 0 1 1.7-1.8h.046a1.75 1.75 0 0 1 1.749 1.7 50.121 50.121 0 0 1 -6.675 26.352zm-19.992-13.993c3.81 0 8.229.018 12.764 3.44a46.455 46.455 0 0 0 0-28.961c-4.535 3.422-8.954 3.44-12.764 3.44h-27.809v22.081z" fill="url(#a)"/></svg>