<?xml version="1.0"?>
<svg xmlns="http://www.w3.org/2000/svg" xmlns:xlink="http://www.w3.org/1999/xlink" width="512" height="512" viewBox="0 0 128 128"><defs><linearGradient id="a" x1="109.589" y1="108.277" x2="19.39" y2="18.078" gradientUnits="userSpaceOnUse"><stop offset="0" stop-color="#b373f0"/><stop offset="1" stop-color="#01ebcd"/></linearGradient></defs><path d="M81.378,61.961l-5.6,5.457a.5.5,0,0,0-.143.442l1.321,7.707a4,4,0,0,1-5.8,4.216l-6.921-3.638a.493.493,0,0,0-.466,0l-6.919,3.637a4,4,0,0,1-5.8-4.216l.464-2.7a1.75,1.75,0,1,1,3.449.592l-.463,2.7a.5.5,0,0,0,.724.527l6.922-3.639a4.007,4.007,0,0,1,3.72,0l6.923,3.64a.5.5,0,0,0,.725-.527l-1.321-7.707a4,4,0,0,1,1.148-3.539l5.6-5.458a.48.48,0,0,0,.127-.513.475.475,0,0,0-.4-.339L70.92,57.478a4,4,0,0,1-3.012-2.187l-3.46-7.013a.5.5,0,0,0-.9,0l-3.46,7.012a4,4,0,0,1-3.012,2.188L49.343,58.6a.5.5,0,0,0-.278.852l5.6,5.457a1.75,1.75,0,1,1-2.443,2.506l-5.6-5.457A4,4,0,0,1,48.84,55.14l7.737-1.125a.5.5,0,0,0,.376-.274l3.461-7.012a4,4,0,0,1,7.173,0l3.46,7.012a.5.5,0,0,0,.376.274l7.738,1.125a4,4,0,0,1,2.217,6.821ZM43.341,30.032a1.735,1.735,0,0,0,.845-.219l.914-.5a1.75,1.75,0,0,0-1.67-3.076l-.937.514a1.75,1.75,0,0,0,.848,3.281ZM104.6,80.621c-9.558-21.471-4.141-42.628-4.085-42.84a1.753,1.753,0,0,0-.634-1.843C85.349,24.915,65.468,17.207,64.628,16.884a1.757,1.757,0,0,0-1.219-.014,137.344,137.344,0,0,0-14.148,6.337,1.75,1.75,0,1,0,1.58,3.123c6.661-3.371,11.5-5.309,13.143-5.937,3.4,1.362,20.213,8.325,32.871,17.655-1.048,4.806-4.23,23.433,4.128,43.037C97.912,84.979,83.437,102.221,64,107.668c-19.411-5.439-33.908-22.689-36.983-26.584,8.359-19.6,5.176-38.229,4.128-43.036,2.311-1.7,4.9-3.432,7.71-5.145a1.75,1.75,0,0,0-1.822-2.988,107.105,107.105,0,0,0-8.913,6.023,1.753,1.753,0,0,0-.634,1.845c.056.21,5.494,21.319-4.085,42.838a1.751,1.751,0,0,0,.186,1.745c.671.917,16.689,22.533,39.957,28.806a1.763,1.763,0,0,0,.912,0c23.268-6.273,39.286-27.889,39.957-28.806A1.751,1.751,0,0,0,104.6,80.621ZM75.4,94.889l-.6.373a1.75,1.75,0,0,0,1.824,2.988l.637-.395A1.749,1.749,0,1,0,75.4,94.889ZM92.079,38.952c-10.3-7.018-22.595-12.472-27.4-14.49a1.747,1.747,0,0,0-1.354,0c-4.8,2.014-17.085,7.456-27.4,14.492a1.75,1.75,0,1,0,1.972,2.891A162.188,162.188,0,0,1,64,27.975,165.683,165.683,0,0,1,89.2,41.234a82.451,82.451,0,0,0,3.753,38.533A87.82,87.82,0,0,1,81.346,90.713a1.75,1.75,0,0,0,2.15,2.762A91.585,91.585,0,0,0,96.278,81.282a1.753,1.753,0,0,0,.315-1.756,78.787,78.787,0,0,1-3.77-38.859A1.749,1.749,0,0,0,92.079,38.952ZM31.716,81.29c4.446,5.173,16.438,17.727,31.756,22.568a1.755,1.755,0,0,0,1.054,0,50.723,50.723,0,0,0,5.842-2.267,1.75,1.75,0,1,0-1.461-3.18A47.777,47.777,0,0,1,64,100.351C50.49,95.891,39.682,85.037,35.042,79.779A81.967,81.967,0,0,0,39.33,46.112a1.75,1.75,0,0,0-3.49.276A78.171,78.171,0,0,1,31.4,79.536,1.752,1.752,0,0,0,31.716,81.29ZM24.333,23.176a1.75,1.75,0,0,0,0-3.5H23.175V18.518a1.75,1.75,0,0,0-3.5,0v1.158H18.518a1.75,1.75,0,0,0,0,3.5h1.157v1.157a1.75,1.75,0,0,0,3.5,0V23.176Zm56.505,59.98H82v1.157a1.75,1.75,0,0,0,3.5,0V83.156h1.157a1.75,1.75,0,1,0,0-3.5H85.5V78.5a1.75,1.75,0,0,0-3.5,0v1.158H80.838a1.75,1.75,0,0,0,0,3.5Zm-30-44.471a1.75,1.75,0,0,0-1.75,1.75v1.157H47.925a1.75,1.75,0,0,0,0,3.5h1.158V46.25a1.75,1.75,0,0,0,3.5,0V45.092h1.158a1.75,1.75,0,0,0,0-3.5H52.583V40.435A1.749,1.749,0,0,0,50.833,38.685Zm46.352-11.56h1.157v1.158a1.75,1.75,0,0,0,3.5,0V27.125H103a1.75,1.75,0,0,0,0-3.5h-1.158V22.467a1.75,1.75,0,0,0-3.5,0v1.158H97.185a1.75,1.75,0,0,0,0,3.5ZM30.815,98.25H29.658V97.092a1.75,1.75,0,0,0-3.5,0V98.25H25a1.75,1.75,0,0,0,0,3.5h1.158v1.158a1.75,1.75,0,0,0,3.5,0V101.75h1.157a1.75,1.75,0,0,0,0-3.5Zm78,6.574h-1.157v-1.157a1.75,1.75,0,0,0-3.5,0v1.157H103a1.75,1.75,0,0,0,0,3.5h1.158v1.158a1.75,1.75,0,0,0,3.5,0v-1.158h1.157a1.75,1.75,0,0,0,0-3.5Z" fill="url(#a)"/></svg>
