<svg id="Layer_1" enable-background="new 0 0 128 128" viewBox="0 0 128 128" xmlns="http://www.w3.org/2000/svg" xmlns:xlink="http://www.w3.org/1999/xlink"><linearGradient id="SVGID_1_" gradientTransform="matrix(1 0 0 -1 0 130)" gradientUnits="userSpaceOnUse" x1="107.665" x2="20.332" y1="22.334" y2="109.667"><stop offset="0" stop-color="#b373f0"/><stop offset="1" stop-color="#01ebcd"/></linearGradient><path d="m28 27.8c.3-.9 1.3-1.4 2.2-1.1l.7.2c.9.3 1.4 1.3 1.1 2.2-.2.7-.9 1.2-1.7 1.2-.2 0-1.2-.3-1.2-.3-.9-.3-1.4-1.3-1.1-2.2zm83.2 6.9v68.6c0 1-.8 1.8-1.8 1.8-.2 0-.4 0-.6-.1l-22.8-7.6c-.9-.3-1.4-1.3-1.1-2.2s1.3-1.4 2.2-1.1l20.6 6.9v-65l-26.8-8.9v5.8l6.6 2.2c.3.1.7.3.9.6l2.2 3v-.3c0-1 .8-1.7 1.8-1.7.2 0 .3 0 .5.1l8.1 2.7c.7.2 1.2.9 1.2 1.7v49.7c0 1-.8 1.7-1.7 1.7-.2 0-.4 0-.6-.1l-19-6.3v7.1c0 .1 0 .6-.3 1-.3.5-.8.6-.9.6l-30.3 10.1c-.2.1-.4.1-.6.1s-.4 0-.6-.1l-30.2-10.1c-.7-.2-1.2-.9-1.2-1.7v-68.6c0-1 .8-1.7 1.7-1.7.2 0 .4 0 .6.1l5.2 1.7c.9.3 1.4 1.3 1.1 2.2s-1.3 1.4-2.2 1.1l-2.9-1v65l26.8 8.9v-5.8l-20.1-6.7c-.7-.2-1.2-.9-1.2-1.7v-16.1c0-1 .8-1.8 1.8-1.8s1.8.8 1.8 1.8v14.9l17.8 5.9v-55.4l-11.2-3.7c-1-.3-1.5-1.3-1.2-2.2s1.3-1.4 2.2-1.1l11.8 3.9 29.8-9.9c.4-.1.7-.1 1.1 0l30.3 10.1c.8.2 1.2.9 1.2 1.6zm-40.2 35.1c.4-.9 1.5-1.2 2.4-.7 1.3.7 2.6 1.1 4 1.4v-34l-17.7 5.9c1.8.8 3.4 1.9 4.7 3.3 2.3 2.6 3.2 6 2.6 10.1-.2 1.3-.2 2.6-.1 3.9.1 1-.6 1.8-1.6 1.9s-1.8-.6-1.9-1.5c-.2-1.6-.2-3.2.1-4.8.5-2.5-.1-5.1-1.6-7.2-2.5-3-7-3.7-8.2-3.8l-3.2 1.1v46l4.5-1.5 4.6-7.9c.5-.8 1.6-1.1 2.4-.6.4.2.7.6.8 1l1.4 4.5 7.7-2.6c.9-.3 1.9.2 2.2 1.1s-.2 1.9-1.1 2.2l-9.4 3.1c-.9.3-1.9-.2-2.2-1.1 0 0-.8-2.5-.8-2.5l-3 5.1c-.2.4-.6.6-1 .8l-6.3 2.1v5.8l26.8-9v-17.9c-2-.3-3.9-.9-5.6-1.8-.6-.5-.9-1.5-.5-2.4zm6.4-42.7-26.8 8.9v5.8l26.8-8.9zm21.3 61.4v-8.9c-.8-2.9-5.6-7.5-14.2-5.7-1.2.2-2.4.4-3.6.4v8.2zm-17.8-52v34.2c1 0 1.9-.1 2.9-.3 6.7-1.4 11.8.4 14.9 3.1v-31l-4.7-1.6v3.1c0 1-.8 1.7-1.8 1.7-.5 0-1.1-.3-1.4-.7l-4.9-6.8zm-53.8 22.2 2.9.6-3.7 3.4c-.7.6-.8 1.7-.2 2.5.6.7 1.7.8 2.5.2 0 0 .1 0 .1-.1l6.2-5.7c.7-.7.8-1.8.1-2.5-.2-.3-.6-.5-.9-.5l-4.8-1v-16l11.3 3.8c.9.3 1.9-.2 2.2-1.1s-.2-1.9-1.1-2.2l-13.6-4.5c-.9-.3-1.9.2-2.2 1.1-.1.2-.1.4-.1.6v19.7c0 .8.5 1.5 1.3 1.7zm41.8 6.4c-.6-.8-1.7-.9-2.4-.4s-.9 1.5-.5 2.3c.1.2.3.4.4.6.6.8 1.7.9 2.4.3.8-.6.9-1.7.4-2.4 0-.1-.2-.2-.3-.4z" fill="url(#SVGID_1_)"/></svg>