<svg height="512" viewBox="0 0 128 128" width="512" xmlns="http://www.w3.org/2000/svg" xmlns:xlink="http://www.w3.org/1999/xlink"><linearGradient id="a" gradientUnits="userSpaceOnUse" x1="99.191" x2="28.884" y1="109.614" y2="39.308"><stop offset="0" stop-color="#b373f0"/><stop offset="1" stop-color="#01ebcd"/></linearGradient><path d="m46.583 24.123a1.751 1.751 0 0 1 .49-2.426q.393-.261.8-.509a1.75 1.75 0 0 1 1.827 2.985c-.233.143-.464.29-.69.44a1.75 1.75 0 0 1 -2.426-.49zm8.355-2.393a28.294 28.294 0 0 1 9.062-1.462c13.225 0 23.983 8.869 23.983 19.77 0 5.446-2.637 10.523-7.426 14.293a1.75 1.75 0 0 0 2.166 2.75 21.857 21.857 0 0 0 8.76-17.043c0-12.831-12.329-23.27-27.483-23.27a31.756 31.756 0 0 0 -10.181 1.646 1.75 1.75 0 0 0 1.119 3.316zm-4.99 38.316v2.854a5.847 5.847 0 0 0 9.952 4.168 5.84 5.84 0 0 0 8.2 0 5.847 5.847 0 0 0 9.952-4.168v-3.956a1.75 1.75 0 0 0 -3.5 0v3.956a2.351 2.351 0 1 1 -4.7 0 1.75 1.75 0 0 0 -3.5 0 2.351 2.351 0 0 1 -4.7 0 1.75 1.75 0 0 0 -3.5 0 2.351 2.351 0 1 1 -4.7 0v-3.956a1.749 1.749 0 0 0 -1.023-1.591c-7.654-3.492-12.408-10.125-12.408-17.315a17.3 17.3 0 0 1 4-10.933 1.75 1.75 0 0 0 -2.722-2.2 20.768 20.768 0 0 0 -4.783 13.132c.001 8.245 5.118 15.821 13.432 20.009zm-4.969-19.769a9.125 9.125 0 1 1 9.121 9.123 9.136 9.136 0 0 1 -9.121-9.123zm3.5 0a5.625 5.625 0 1 0 5.621-5.625 5.631 5.631 0 0 0 -5.621 5.625zm30.552 5.574a1.749 1.749 0 0 0 2.43-.471 9.126 9.126 0 1 0 -7.561 4.02 1.75 1.75 0 0 0 0-3.5 5.622 5.622 0 1 1 4.665-2.48 1.75 1.75 0 0 0 .466 2.431zm-2.831 46.987-.6-.3a1.75 1.75 0 1 0 -1.563 3.131l.6.3a1.749 1.749 0 0 0 2.346-.784 1.749 1.749 0 0 0 -.783-2.347zm29.126 1.121a7.135 7.135 0 0 0 -12.226-2.33l-15.526-7.762 15.532-7.767a7.127 7.127 0 1 0 8.488-11.029 7.125 7.125 0 1 0 -13.917.171l-17.894 8.948a1.75 1.75 0 1 0 1.565 3.131l19.293-9.644a1.75 1.75 0 0 0 .794-2.326c-.018-.037-.048-.092-.076-.141a3.626 3.626 0 1 1 6.438.156 1.75 1.75 0 0 0 1.285 2.57 3.623 3.623 0 1 1 -3.739 5.243c-.009-.022-.019-.043-.025-.057a1.748 1.748 0 0 0 -2.379-.85l-19.279 9.638-33.341-16.666a7.125 7.125 0 1 0 -13.913-.17 7.124 7.124 0 1 0 8.494 11.026l15.529 7.762-15.535 7.768a7.126 7.126 0 1 0 -8.487 11.028 7.125 7.125 0 1 0 13.916-.171l17.637-8.816a1.75 1.75 0 0 0 -1.56-3.131l-19.037 9.516a1.748 1.748 0 0 0 -.783 2.347c.015.03.041.076.065.118a3.627 3.627 0 1 1 -6.438-.155 1.749 1.749 0 0 0 -1.289-2.566 3.622 3.622 0 0 1 -1.106-6.827 3.624 3.624 0 0 1 4.845 1.584l.025.056a1.748 1.748 0 0 0 2.379.85l19.279-9.64 13.675 6.835a1.75 1.75 0 0 0 1.564-3.131l-34.518-17.255a1.748 1.748 0 0 0 -2.379.85c-.006.013-.016.035-.025.058a3.626 3.626 0 1 1 -3.739-5.244 1.75 1.75 0 0 0 1.285-2.57 3.624 3.624 0 1 1 6.438-.155c-.028.048-.057.1-.076.14a1.75 1.75 0 0 0 .794 2.326l55.58 27.783a1.748 1.748 0 0 0 2.379-.85c.006-.012.016-.035.025-.057a3.626 3.626 0 1 1 3.739 5.247 1.749 1.749 0 0 0 -1.285 2.569 3.624 3.624 0 1 1 -6.438.155c.024-.041.049-.087.065-.118a1.748 1.748 0 0 0 -.783-2.347l-8.959-4.479a1.75 1.75 0 0 0 -1.565 3.131l7.563 3.78a7.126 7.126 0 1 0 13.914.17 7.117 7.117 0 0 0 3.733-8.7z" fill="url(#a)"/></svg>