<svg id="Layer_1" enable-background="new 0 0 128 128" height="512" viewBox="0 0 128 128" width="512" xmlns="http://www.w3.org/2000/svg" xmlns:xlink="http://www.w3.org/1999/xlink"><linearGradient id="SVGID_1_" gradientUnits="userSpaceOnUse" x1="96.898" x2="34.809" y1="94.73" y2="32.641"><stop offset="0" stop-color="#b373f0"/><stop offset="1" stop-color="#01ebcd"/></linearGradient><path d="m90.9 42.6 1.8-2.7 2.4 1.6c.8.5 1.8.4 2.4-.5l4-5.9c.5-.8.3-1.9-.5-2.4l-11.6-7.8c-.8-.5-1.9-.3-2.4.5l-4 5.9c-.5.8-.3 1.9.5 2.4l2.4 1.6-1.6 2.3c-5-3-10.5-4.8-16.2-5.4v-7c0-1-.8-1.7-1.7-1.8h-13.2v-3.2h21.6v3.2h-2.8c-1 0-1.8.8-1.8 1.8s.8 1.8 1.8 1.8h4.6c1 0 1.7-.8 1.8-1.7v-6.7c0-1-.8-1.7-1.7-1.8h-25.3c-1 0-1.8.8-1.8 1.8v6.7c0 1 .8 1.8 1.8 1.8h13.1v5.1c-.2 0-.4 0-.6 0s-.4 0-.6 0v-2.5c0-1-.8-1.8-1.8-1.8s-1.8.8-1.8 1.8v2.7c-7.2.7-14 3.4-19.8 7.8-.8.6-.863 1.791-.4 2.4.558.734 1.612 1.03 2.5.4 15.9-12 38.5-8.8 50.5 7.1s8.8 38.5-7.1 50.5-38.5 8.8-50.5-7.1c-8.6-11.4-9.7-26.7-2.7-39.2.5-.8.2-1.9-.6-2.4s-1.9-.2-2.4.6c-10.6 19.1-3.8 43.2 15.3 53.9s43.2 3.8 53.9-15.3c9.1-16.1 5.9-36.1-7.5-48.5zm-1.9-13.8 8.7 5.8-2.1 3-2.4-1.6-6.3-4.2zm-.2 8.5 1 .7-1.6 2.3c-.3-.2-.6-.5-.9-.7zm-54.9 11.4c-.7-.6-.8-1.7-.2-2.5.2-.3.4-.5.7-.8.6-.7 1.7-.8 2.5-.2s.8 1.7.2 2.5c-.2.2-.4.5-.6.7-.8.8-1.9.9-2.6.3zm45.9 45.7c.5.8.2 1.9-.6 2.4-.4.2-.8.5-1.2.7-.9.4-1.9.1-2.3-.8-.4-.8-.1-1.8.7-2.3.3-.2.7-.4 1-.6.9-.5 1.9-.2 2.4.6zm2.5-2-2.4-2.4c-.7-.7-.7-1.8 0-2.5s1.8-.7 2.5 0l1.1 1.1c3.7-4.3 6-9.6 6.3-15.3h-1.6c-1 0-1.8-.8-1.8-1.8s.8-1.8 1.8-1.8h1.6c-.4-5.7-2.6-11-6.3-15.3l-1.1 1.1c-.7.7-1.8.7-2.5 0s-.7-1.8 0-2.4l1.1-1.1c-4.3-3.7-9.6-6-15.3-6.3v1.5c0 1-.8 1.8-1.8 1.8s-1.8-.8-1.8-1.8v-1.5c-5.7.4-11 2.6-15.3 6.3l1.1 1.1c.7.7.7 1.8 0 2.5s-1.8.7-2.5 0l-1.1-1.1c-3.7 4.3-6 9.6-6.3 15.3h1.6c1 0 1.8.8 1.8 1.8s-.8 1.8-1.8 1.8h-1.5c.4 5.7 2.6 11 6.3 15.3l1.1-1.1c.7-.7 1.8-.7 2.5 0s.7 1.8 0 2.5l-1 1c4.3 3.7 9.6 6 15.3 6.3v-1.5c0-1 .8-1.8 1.8-1.8s1.8.8 1.8 1.8v1.6c1.6-.1 3.2-.4 4.8-.8.9-.3 1.9.3 2.2 1.2s-.3 1.9-1.2 2.2c0 0 0 0-.1 0-2.4.6-4.9.9-7.4.9-15.9 0-29.4-12.8-29.4-29.4 0-15.8 12.3-29.4 29.4-29.4 18.1 0 29.4 15 29.4 29.4 0 7.5-2.9 15.1-8.6 20.8-.9.7-2 .7-2.7 0zm-16.5-35.4v14.6c0 1-.8 1.8-1.8 1.8s-1.8-.8-1.8-1.8v-14.6c0-1 .8-1.8 1.8-1.8s1.8.8 1.8 1.8z" fill="url(#SVGID_1_)"/></svg>