<svg height="512" viewBox="0 0 128 128" width="512" xmlns="http://www.w3.org/2000/svg" xmlns:xlink="http://www.w3.org/1999/xlink"><linearGradient id="a" gradientUnits="userSpaceOnUse" x1="78.896" x2="52.166" y1="75.834" y2="49.104"><stop offset="0" stop-color="#b373f0"/><stop offset="1" stop-color="#01ebcd"/></linearGradient><path d="m111.218 18.746-2.381 18.078a1.749 1.749 0 0 1 -.588 1.093l-42.238 36.692a1.75 1.75 0 1 1 -2.295-2.643l41.737-36.257 2-15.159-15.159 2-10.348 11.905a1.75 1.75 0 1 1 -2.642-2.3l10.779-12.404a1.743 1.743 0 0 1 1.093-.587l18.078-2.381a1.75 1.75 0 0 1 1.964 1.963zm-34.804 21.154a1.743 1.743 0 0 0 1.322-.6l.617-.71a1.75 1.75 0 1 0 -2.643-2.29l-.616.71a1.749 1.749 0 0 0 1.32 2.9zm-8.337 44.278a1.748 1.748 0 0 1 0 2.474l-4.824 4.825a1.749 1.749 0 0 1 -2.475 0l-5.315-5.315-1.99 1.99a1.749 1.749 0 0 1 -2.475 0l-.932-.933-4.893 4.5a1.75 1.75 0 1 1 -2.373-2.576l4.784-4.4-4.331-4.331-15.553 16.911 2.973 2.973 2.946-2.709a1.75 1.75 0 1 1 2.369 2.576l-2.838 2.61.584.584a1.749 1.749 0 0 1 0 2.475l-3.834 3.837a5.345 5.345 0 0 1 -7.548 0l-4.022-4.022a5.339 5.339 0 0 1 0-7.549l3.837-3.836a1.749 1.749 0 0 1 2.475 0l.584.584 15.554-16.911-.932-.935a1.749 1.749 0 0 1 2.474-2.474l9.913 9.912.753-.753-16.466-16.463a1.75 1.75 0 0 1 0-2.474l4.826-4.826a1.8 1.8 0 0 1 2.474 0l6.078 6.078 21.3-24.517a1.75 1.75 0 0 1 2.643 2.3l-21.458 24.702 2.328 2.328 36.71-36.713a1.749 1.749 0 0 1 2.477 2.477l-36.713 36.711zm-38.051 20.422-6.621-6.621-2.6 2.6a1.838 1.838 0 0 0 0 2.6l4.021 4.022a1.841 1.841 0 0 0 2.6 0zm34.339-19.18-21.78-21.78-2.351 2.35 21.782 21.78zm-25.794 7.62-.653.6a1.75 1.75 0 0 0 2.369 2.577l.653-.6a1.75 1.75 0 1 0 -2.369-2.577z" fill="url(#a)"/></svg>