<svg height="512" viewBox="0 0 128 128" width="512" xmlns="http://www.w3.org/2000/svg" xmlns:xlink="http://www.w3.org/1999/xlink"><linearGradient id="a" gradientUnits="userSpaceOnUse" x1="95.197" x2="46.194" y1="85.632" y2="36.629"><stop offset="0" stop-color="#b373f0"/><stop offset="1" stop-color="#01ebcd"/></linearGradient><path d="m41.583 46.588a1.749 1.749 0 0 1 .993-2.267q.408-.16.821-.31a1.75 1.75 0 1 1 1.2 3.289q-.372.135-.743.281a1.75 1.75 0 0 1 -2.267-.993zm25.111 23.556-5.012-5.013a1.75 1.75 0 0 0 -2.474 0l-3.974 3.969-3.973-3.973a1.8 1.8 0 0 0 -2.474 0l-5.013 5.013a1.751 1.751 0 0 0 0 2.475l3.973 3.973-3.973 3.972a1.751 1.751 0 0 0 0 2.475l5.013 5.013a1.75 1.75 0 0 0 2.474 0l5.211-5.211a1.75 1.75 0 0 0 -2.472-2.47l-3.973 3.972-2.54-2.539 3.972-3.973a1.749 1.749 0 0 0 0-2.475l-3.973-3.973 2.538-2.537 3.976 3.974a1.749 1.749 0 0 0 2.475 0l3.973-3.972 2.537 2.537-3.975 3.973a1.749 1.749 0 0 0 0 2.475l3.972 3.971-3.774 3.775a1.75 1.75 0 1 0 2.474 2.475l5.012-5.013a1.749 1.749 0 0 0 0-2.475l-3.972-3.972 3.972-3.973a1.749 1.749 0 0 0 0-2.473zm35.256-46.126a1.75 1.75 0 0 0 -1.953 2.9 8.277 8.277 0 0 1 3.449 9.624c-1.139 2.983-4.007 4.388-7.871 3.848-6.543-.911-10.586 1.8-12.6 4.372l-4.759-4.759a1.751 1.751 0 0 0 -2.475 0l-5.406 5.406a34.734 34.734 0 0 0 -20.809-3.009 1.75 1.75 0 1 0 .575 3.452 31.019 31.019 0 1 1 -12 4.707 1.75 1.75 0 1 0 -1.928-2.921 34.791 34.791 0 0 0 -5.434 4.439 34.711 34.711 0 1 0 42.79-4.915l3.446-3.445 11.131 11.131-1.2 1.2a1.75 1.75 0 0 0 2.475 2.475l2.435-2.436a1.749 1.749 0 0 0 0-2.475l-6.334-6.334c1.041-1.52 3.76-4.232 9.609-3.415 6.513.908 10.275-2.538 11.623-6.064a11.815 11.815 0 0 0 -4.764-13.781zm.94-1.862a1.749 1.749 0 0 0 2.443-.4l1.6-2.219a1.75 1.75 0 0 0 -2.84-2.047l-1.6 2.219a1.75 1.75 0 0 0 .397 2.447zm-7.224 7.025-1.6 2.218a1.75 1.75 0 1 0 2.834 2.048l1.6-2.218a1.75 1.75 0 1 0 -2.838-2.048zm-3.144-7.3 2.219 1.6a1.75 1.75 0 0 0 2.047-2.839l-2.219-1.6a1.75 1.75 0 0 0 -2.047 2.839z" fill="url(#a)"/></svg>