<svg height="512" viewBox="0 0 128 128" width="512" xmlns="http://www.w3.org/2000/svg" xmlns:xlink="http://www.w3.org/1999/xlink"><linearGradient id="a" gradientUnits="userSpaceOnUse" x1="80.847" x2="47.153" y1="80.847" y2="47.153"><stop offset="0" stop-color="#b373f0"/><stop offset="1" stop-color="#01ebcd"/></linearGradient><path d="m109.221 52.473-39.187 39.186a1.749 1.749 0 0 1 -2.474-2.474l39.186-39.185a2.277 2.277 0 0 0 0-3.215l-25.529-25.531a2.275 2.275 0 0 0 -3.215 0l-10.291 10.291a1.75 1.75 0 0 1 -2.475-2.475l10.291-10.291a5.777 5.777 0 0 1 8.164 0l25.53 25.53a5.779 5.779 0 0 1 0 8.164zm-47.455-15.707a1.743 1.743 0 0 0 1.234-.513l.792-.792a1.75 1.75 0 0 0 -2.475-2.475l-.792.792a1.751 1.751 0 0 0 1.238 2.988zm-3.394 61.606-8.372 8.374a2.275 2.275 0 0 1 -3.215 0l-25.531-25.529a2.277 2.277 0 0 1 0-3.215l27.137-27.137 24.534 24.535a1.749 1.749 0 1 0 2.475-2.475l-24.535-24.534 7.635-7.638a1.75 1.75 0 0 0 -2.475-2.475l-37.246 37.249a5.772 5.772 0 0 0 0 8.164l25.53 25.53a5.772 5.772 0 0 0 8.164 0l8.374-8.374a1.75 1.75 0 0 0 -2.475-2.475zm4.969-4.972-.578.578a1.75 1.75 0 1 0 2.474 2.475l.578-.578a1.75 1.75 0 1 0 -2.474-2.475zm-14.95-7.715a6.036 6.036 0 0 1 -4.3-1.78 1.75 1.75 0 0 0 -2.475 2.475 9.58 9.58 0 1 0 -2.7-8.214 1.75 1.75 0 1 0 3.461.523 6.079 6.079 0 1 1 6.01 7zm28.66-53.719a4 4 0 0 1 0-5.649 4.09 4.09 0 0 1 5.65 0 3.992 3.992 0 0 1 0 5.647 3.992 3.992 0 0 1 -5.648 0zm-1.7 35.668a4 4 0 1 1 1.17 2.823 3.962 3.962 0 0 1 -1.173-2.82z" fill="url(#a)"/></svg>