<svg id="Layer_1" enable-background="new 0 0 128 128" viewBox="0 0 128 128" xmlns="http://www.w3.org/2000/svg" xmlns:xlink="http://www.w3.org/1999/xlink"><linearGradient id="SVGID_1_" gradientUnits="userSpaceOnUse" x1="93.991" x2="34.017" y1="34.007" y2="93.981"><stop offset="0" stop-color="#7b49ad"/><stop offset="1" stop-color="#6aa8fb"/></linearGradient><path d="m122.7 62.8c-7.2-7.2-57.5-57.5-57.5-57.5-.7-.7-1.8-.7-2.5 0 0 0-7.8 7.8-7.8 7.8-.7.7-.7 1.8 0 2.5s1.8.7 2.5 0l6.6-6.6 26.3 26.3-7.9 7.9c-2.3 2.3-2.1 5.9 0 8.1 1 1 2.5 1.5 3.9 1.7 1.5.1 2.9.9 3.7 2.2.5.8 1.6 1.1 2.4.6s1.1-1.6.6-2.4c-1.4-2.3-3.8-3.8-6.5-3.9-.6-.1-1.2-.3-1.7-.7-.8-.9-.8-2.2.1-3.1l7.9-7.9 26.2 26.2-26.2 26.3-7.9-7.9c-1.9-1.9-5.5-2.6-8.1 0-1 1-1.5 2.5-1.7 3.9 0 1.1-.5 2.2-1.3 3-1.8 1.7-4.6 1.7-6.3 0-1.7-1.8-1.7-4.6 0-6.3.8-.8 1.9-1.3 3-1.3 1.4-.1 3-.8 3.9-1.7 2.2-2.2 2.2-5.8 0-8.1l-7.9-7.9 7.9-7.9c.8-.8 2.3-.9 3.1-.1.4.4.6 1 .7 1.7.2 4.4 3.9 7.8 8.3 7.6 2-.1 3.9-.9 5.3-2.3.4-.4.9-1 1.2-1.5.5-.8.2-1.9-.6-2.4s-1.9-.2-2.4.6c-.1.1-.5.7-.7.9-1.8 1.7-4.6 1.7-6.3 0-.8-.8-1.3-1.9-1.3-3-.1-1.4-.7-2.9-1.7-3.9-2.1-2.1-5.7-2.3-8.1 0l-7.9 7.8-7.9-7.9c-.9-.9-.9-2.3 0-3.1.6-.6 1.2-.6 1.6-.6 4.5-.3 7.8-3.9 7.6-8.3s-3.9-7.8-8.3-7.6c-4.1.2-7.4 3.4-7.6 7.6 0 .3-.1 1-.6 1.6-.9.8-2.3.8-3.1 0l-7.9-7.9 9.1-9.1c.7-.7.7-1.8 0-2.5s-1.8-.7-2.5 0l-39.1 39.1c-.7.7-.7 1.8 0 2.5 0 0 57.5 57.5 57.5 57.5.8.8 1.9.6 2.5 0 2.1-2.1 8.5-8.5 8.5-8.5.7-.7.7-1.8 0-2.5s-1.8-.7-2.5 0l-7.3 7.2-26.3-26.3 7.9-7.9c2.2-2.2 2.3-5.8 0-8.1-.9-.9-2.5-1.6-3.9-1.7-1.1 0-2.2-.5-3-1.3-1.7-1.8-1.7-4.6 0-6.3 1.8-1.7 4.6-1.7 6.3 0 .8.8 1.3 1.9 1.3 3 .1 1.4.8 3 1.7 3.9 2.7 2.7 6.2 1.8 8.1 0l7.9-7.9 7.9 7.9c1.1 1.1.6 2.5.1 3.1-.5.4-1 .6-1.7.7-4.4.2-7.8 3.9-7.6 8.3s3.9 7.8 8.3 7.6c4.1-.2 7.4-3.5 7.6-7.6.1-.6.3-1.2.7-1.7.6-.6 2-1 3.1.1 2 2 7.9 7.9 7.9 7.9l-13.3 13.3c-.7.7-.7 1.8 0 2.5s1.8.7 2.5 0l43.2-43.3c.7-.7.7-1.7 0-2.4zm-69.1 9.1c-1.1 1.1-2.5.6-3.1.1-.4-.5-.6-1-.7-1.7-.2-4.4-3.9-7.8-8.3-7.6s-7.8 3.9-7.6 8.3c.2 4.1 3.5 7.4 7.6 7.6.6.1 1.2.3 1.7.7 1 1 .5 2.5-.1 3.1l-7.9 7.9-26.2-26.3 26.3-26.3 7.9 7.9c2.2 2.2 5.8 2.3 8 0 1-1 1.6-2.4 1.7-4 .1-2.5 2.2-4.4 4.7-4.3s4.4 2.2 4.3 4.7c-.1 2.3-2 4.2-4.3 4.3-2.1 0-3.5 1.3-4.2 2-2.2 2.2-1.5 5.9.3 7.7l7.9 7.9zm43.7 7.8c-.7-.7-.7-1.8 0-2.5l5.8-5.8c.7-.7 1.8-.7 2.5 0s.7 1.8 0 2.5l-5.8 5.8c-.7.7-1.8.7-2.5 0zm-48.4-58.1c-.7-.7-.7-1.8 0-2.5l1.6-1.6c.7-.7 1.8-.7 2.5 0s.7 1.8 0 2.5l-1.6 1.6c-.7.7-1.9.7-2.5 0z" fill="url(#SVGID_1_)"/></svg>