<svg height="512" viewBox="0 0 128 128" width="512" xmlns="http://www.w3.org/2000/svg" xmlns:xlink="http://www.w3.org/1999/xlink"><linearGradient id="a" gradientUnits="userSpaceOnUse" x1="96.129" x2="29.083" y1="99.771" y2="32.724"><stop offset="0" stop-color="#da1f1f"/><stop offset="1" stop-color="#ffd236"/></linearGradient><path d="m78.833 99.017a1.75 1.75 0 0 1 -1.749 1.737h-.014l-.791-.006a1.75 1.75 0 0 1 .013-3.5h.013l.792.006a1.749 1.749 0 0 1 1.736 1.763zm34.5-30.187-13.3-40.107a1.75 1.75 0 0 0 -1.333-1.167l-38.8-7.556a1.751 1.751 0 0 0 -1.038.115l-14.316 6.285a1.751 1.751 0 0 0 1.408 3.2l10.64-4.672-1.913 5.5a1.748 1.748 0 0 0 .367 1.763l2.598 2.809-.7 2.923a1.749 1.749 0 0 0 1.291 2.111 1.77 1.77 0 0 0 .412.049 1.749 1.749 0 0 0 1.7-1.34l.924-3.833a1.751 1.751 0 0 0 -.415-1.6l-2.52-2.729 2.388-6.862 36.299 7.081 12.144 36.613-7.3-.63-2.981-3.85a1.746 1.746 0 0 0 -.831-.589l-5.257-1.754a1.75 1.75 0 1 0 -1.1 3.32l4.745 1.582 3.125 4.036a1.747 1.747 0 0 0 1.233.672l8.186.706-9.136 18.894h-30.68a1.738 1.738 0 0 0 -.305.027l-34.785 6.173-15.807-21.034 12.415-38.666 3.99-1.751a1.75 1.75 0 1 0 -1.407-3.205l-4.712 2.068a1.75 1.75 0 0 0 -.962 1.067l-12.933 40.279a1.747 1.747 0 0 0 -.064.717c0 .012-.006.03 0 .043l2.032 15.7a1.751 1.751 0 0 0 .339.83l11.547 15.289a1.753 1.753 0 0 0 1.4.7 1.732 1.732 0 0 0 .327-.031l38.522-7.345a1.75 1.75 0 1 0 -.656-3.437l-37.453 7.14-10.619-14.051-1.122-8.665 13.012 17.313a1.749 1.749 0 0 0 1.7.671l35.695-6.332h27.758l-3.572 4.07-10.084-.07h-.013a1.75 1.75 0 0 0 -.012 3.5l10.884.077h.012a1.751 1.751 0 0 0 1.315-.6l6.634-7.555.013-.014a1.715 1.715 0 0 0 .261-.39l10.716-22.17a1.753 1.753 0 0 0 .089-1.318zm-74-36.482a1.732 1.732 0 0 0 .7-.148l.584-.256a1.75 1.75 0 1 0 -1.405-3.2l-.583.256a1.75 1.75 0 0 0 .7 3.353zm5.263 38.6a1.749 1.749 0 0 0 2.475 0l29.706-29.707a1.749 1.749 0 0 0 -.087-2.556l-.141-.12a2.893 2.893 0 1 1 4.886-1.488 1.75 1.75 0 0 0 2.052 2.053 2.893 2.893 0 1 1 -1.528 4.838l-.083-.1a1.75 1.75 0 0 0 -1.258-.595 1.663 1.663 0 0 0 -1.294.512l-34.594 34.597a1.749 1.749 0 0 0 .087 2.556l.141.12a2.893 2.893 0 1 1 -4.886 1.488 1.75 1.75 0 0 0 -2.052-2.053 2.893 2.893 0 1 1 1.524-4.842l.087.1a1.706 1.706 0 0 0 2.424.135 1.791 1.791 0 0 0 .165-2.486c-.077-.092-.155-.182-.238-.263a6.394 6.394 0 1 0 -5.4 10.853 6.394 6.394 0 1 0 11.76-4.264l32.323-32.326a6.394 6.394 0 1 0 4.264-11.759 6.394 6.394 0 1 0 -11.761 4.259l-28.568 28.573a1.75 1.75 0 0 0 0 2.474zm31.696 3.052a1.75 1.75 0 0 0 0 3.5 5.875 5.875 0 1 0 -5.875-5.875 1.75 1.75 0 0 0 3.5 0 2.375 2.375 0 1 1 2.375 2.375zm-39.542-21.333a5.417 5.417 0 1 1 5.417 5.416 5.423 5.423 0 0 1 -5.417-5.416zm3.5 0a1.917 1.917 0 1 0 1.917-1.917 1.918 1.918 0 0 0 -1.917 1.917z" fill="url(#a)"/></svg>