<svg height="512" viewBox="0 0 128 128" width="512" xmlns="http://www.w3.org/2000/svg" xmlns:xlink="http://www.w3.org/1999/xlink"><linearGradient id="a" gradientUnits="userSpaceOnUse" x1="105.321" x2="22.679" y1="105.321" y2="22.679"><stop offset="0" stop-color="#da1f1f"/><stop offset="1" stop-color="#ffd236"/></linearGradient><path d="m99.372 89.375h-24.181l-6.614-6.612a1.749 1.749 0 0 0 -2.987 1.237v5.375h-42.3v-57.875a1.749 1.749 0 0 0 -1.75-1.75h-5.207a1.749 1.749 0 0 0 -1.75 1.75v65a1.749 1.749 0 0 0 1.75 1.75h5.209a1.749 1.749 0 0 0 1.75-1.75v-3.625h44.048a1.749 1.749 0 0 0 1.75-1.75v-2.9l4.139 4.138a1.754 1.754 0 0 0 1.238.513h24.905a1.75 1.75 0 1 0 0-3.5zm-79.58 5.375h-1.709v-61.5h1.709zm31.583-57.875a1.749 1.749 0 0 1 1.75-1.75h1.125a1.75 1.75 0 0 1 0 3.5h-1.125a1.749 1.749 0 0 1 -1.75-1.75zm-24.958 0a1.749 1.749 0 0 1 1.75-1.75h5.548a1.749 1.749 0 0 1 1.472.8l1.843 2.875.058-1.973a1.75 1.75 0 0 1 1.749-1.7h8.288a1.75 1.75 0 0 1 0 3.5h-6.589l-.173 5.926a1.752 1.752 0 0 1 -1.28 1.636 1.8 1.8 0 0 1 -.469.063 1.75 1.75 0 0 1 -1.472-.8l-4.383-6.821h-4.592a1.749 1.749 0 0 1 -1.75-1.756zm87 39.542v1.208a1.75 1.75 0 0 1 -3.5 0v-1.208a1.75 1.75 0 0 1 3.5 0zm0-44.917v38.917a1.75 1.75 0 0 1 -3.5 0v-37.167h-1.709v61.5h1.709v-10.75a1.75 1.75 0 0 1 3.5 0v12.5a1.749 1.749 0 0 1 -1.75 1.75h-5.209a1.749 1.749 0 0 1 -1.75-1.75v-38.535l-4.288.117h-.048a1.75 1.75 0 0 1 -1.228-3l5.564-5.486v-10.971h-43.333a1.75 1.75 0 0 1 0-3.5h43.333v-3.625a1.749 1.749 0 0 1 1.75-1.75h5.209a1.749 1.749 0 0 1 1.75 1.75zm-79.167 20.083a6.5 6.5 0 1 0 6.5 6.5 6.508 6.508 0 0 0 -6.5-6.5zm0 9.5a3 3 0 1 1 3-3 3 3 0 0 1 -3 3zm51.337 19.105 2.563-2.563-2.563-2.563a1.75 1.75 0 0 1 2.475-2.475l2.563 2.563 2.563-2.563a1.75 1.75 0 0 1 2.475 2.475l-2.563 2.563 2.563 2.563a1.75 1.75 0 1 1 -2.475 2.475l-2.563-2.563-2.563 2.563a1.75 1.75 0 0 1 -2.475-2.475zm-36.771-30.727a1.75 1.75 0 0 1 -.154 3.493c-.052 0-.1 0-.158-.007a16.059 16.059 0 0 0 -2.668-.038 1.75 1.75 0 0 1 -.341-3.483 19.055 19.055 0 0 1 3.321.035zm15.947 21.786a1.75 1.75 0 0 1 2.465.229 11.1 11.1 0 0 0 4.025 3.129 1.751 1.751 0 0 1 -1.422 3.2 14.6 14.6 0 0 1 -5.3-4.093 1.752 1.752 0 0 1 .232-2.465zm-.229-4.431a1.75 1.75 0 1 1 -3.25 1.3 30.993 30.993 0 0 1 -1.674-5.973 1.79 1.79 0 0 1 1.39-2.074 1.709 1.709 0 0 1 2.031 1.331c0 .007.021.1.022.111a27.408 27.408 0 0 0 1.481 5.305zm-4.111-11.556a1.751 1.751 0 0 1 -2.8 2.1 10.147 10.147 0 0 0 -3.953-3.111 1.75 1.75 0 0 1 1.461-3.18 13.634 13.634 0 0 1 5.292 4.191zm14.221 22.047a1.748 1.748 0 0 1 1.606-1.882 13.327 13.327 0 0 0 2.6-.482 1.75 1.75 0 0 1 .966 3.364 16.676 16.676 0 0 1 -3.291.606c-.046 0-.093.006-.139.006a1.748 1.748 0 0 1 -1.742-1.612z" fill="url(#a)"/></svg>