<svg height="512" viewBox="0 0 128 128" width="512" xmlns="http://www.w3.org/2000/svg" xmlns:xlink="http://www.w3.org/1999/xlink"><linearGradient id="a" gradientUnits="userSpaceOnUse" x1="93.974" x2="34.02" y1="101.23" y2="41.276"><stop offset="0" stop-color="#da1f1f"/><stop offset="1" stop-color="#ffd236"/></linearGradient><path d="m99.918 60.328a35.912 35.912 0 0 0 -27.5-33.1l.229-6.168a1.748 1.748 0 0 0 -.769-1.516l-6.9-4.659a1.744 1.744 0 0 0 -1.958 0l-6.9 4.659a1.751 1.751 0 0 0 -.77 1.516l.785 21.1a42.766 42.766 0 0 1 -13.39-4.51 32.673 32.673 0 0 1 8.148-5.163 1.75 1.75 0 1 0 -1.414-3.2 35.809 35.809 0 0 0 -21.4 31.041l-.354 6.755a1.749 1.749 0 0 0 1.655 1.84h.094a1.751 1.751 0 0 0 1.746-1.658l.354-6.756a32.342 32.342 0 0 1 8.541-20.337 46.083 46.083 0 0 0 16.148 5.539l.117 3.165a1.749 1.749 0 0 0 .866 1.445l5.867 3.429a1.751 1.751 0 0 0 1.766 0l5.866-3.429a1.745 1.745 0 0 0 .866-1.445l.118-3.174a47.612 47.612 0 0 0 11.057-3.002 1.75 1.75 0 1 0 -1.334-3.236 44.041 44.041 0 0 1 -9.586 2.682l.422-11.335a32.41 32.41 0 0 1 24.134 29.7l1.649 31.45-20.418 13.8a1.75 1.75 0 1 0 1.959 2.9l21.239-14.35a1.755 1.755 0 0 0 .768-1.542zm-34.168-11.138v-6.021a1.75 1.75 0 0 0 -3.5 0v6.021l-2.4-1.4-.967-25.89 5.117-3.456 5.117 3.456-.964 25.888zm21.483 16.817-13.449 7.419v38.241a1.75 1.75 0 0 1 -3.5 0v-39.274a1.752 1.752 0 0 1 .9-1.533l13.45-7.419v-9.665l-1.968.654a1.75 1.75 0 0 1 -1.1-3.323l4.269-1.416a1.751 1.751 0 0 1 2.3 1.662v13.122a1.751 1.751 0 0 1 -.902 1.532zm-12.733-10.707a1.748 1.748 0 0 1 1.1-2.212l.833-.277a1.749 1.749 0 0 1 1.1 3.32l-.834.277a1.715 1.715 0 0 1 -.552.09 1.749 1.749 0 0 1 -1.647-1.198zm-3.042 2.852-3.115 1.034v31.795a1.751 1.751 0 0 1 -.425 1.144l-2.588 3a1.809 1.809 0 0 1 -2.65 0l-2.588-3a1.746 1.746 0 0 1 -.425-1.144v-31.795l-16.3-5.409v9.664l13.444 7.419a1.751 1.751 0 0 1 .905 1.533v39.274a1.75 1.75 0 0 1 -2.73 1.45l-27.837-18.809a1.753 1.753 0 0 1 -.768-1.542l.662-12.615a1.75 1.75 0 1 1 3.5.184l-.61 11.626 24.288 16.411v-34.946l-13.454-7.419a1.751 1.751 0 0 1 -.905-1.532v-13.122a1.752 1.752 0 0 1 2.3-1.662l19.8 6.571a1.75 1.75 0 0 1 1.2 1.661v32.407l.838.97.838-.971v-32.406a1.75 1.75 0 0 1 1.2-1.661l4.315-1.432a1.75 1.75 0 0 1 1.1 3.322zm-44.083 15.675.052-1a1.75 1.75 0 1 1 3.5.184l-.052 1a1.751 1.751 0 0 1 -1.746 1.658h-.094a1.75 1.75 0 0 1 -1.66-1.842z" fill="url(#a)"/></svg>