<svg height="512" viewBox="0 0 128 128" width="512" xmlns="http://www.w3.org/2000/svg" xmlns:xlink="http://www.w3.org/1999/xlink"><linearGradient id="a" gradientUnits="userSpaceOnUse" x1="97.23" x2="31.51" y1="95.969" y2="30.249"><stop offset="0" stop-color="#da1f1f"/><stop offset="1" stop-color="#ffd236"/></linearGradient><path d="m113.417 67.6a49.122 49.122 0 0 0 -4.817-21.256 1.73 1.73 0 0 0 -.2-.409 49.406 49.406 0 0 0 -76-16.323 1.75 1.75 0 1 0 2.24 2.689 45.682 45.682 0 0 1 4.494-3.29l17.784 61.013a19.729 19.729 0 0 0 -6.3 4.382l-32.528-27.606a45.783 45.783 0 0 1 3.31-16.354l26.775 38.129a1.75 1.75 0 1 0 2.864-2.012l-27.955-39.806a46 46 0 0 1 2.882-4.888 1.75 1.75 0 0 0 -2.9-1.964 49.161 49.161 0 0 0 -8.487 27.7 1.751 1.751 0 0 0 .618 1.334l33.203 28.181a19.552 19.552 0 0 0 -3.336 10.944 1.751 1.751 0 0 0 1.75 1.75h35.846a1.751 1.751 0 0 0 1.75-1.75 19.539 19.539 0 0 0 -3.91-11.715l32.3-27.412a1.751 1.751 0 0 0 .617-1.337zm-64.755 38.714a16.172 16.172 0 0 1 32.154 0zm29.513-12.578c-.395-.371-.8-.729-1.225-1.067l4.8-6.831a1.75 1.75 0 1 0 -2.864-2.011l-4.851 6.907a19.476 19.476 0 0 0 -2.8-1.218l16.531-56.716a1.75 1.75 0 1 0 -3.36-.98l-16.572 56.841a18.6 18.6 0 0 0 -7.589.27l-18-61.751a46.012 46.012 0 0 1 20.005-5.456v62.443a1.75 1.75 0 0 0 3.5 0v-62.437a45.965 45.965 0 0 1 39.15 25.044l-18.084 25.756a1.75 1.75 0 0 0 2.865 2.012l16.906-24.074a45.631 45.631 0 0 1 3.323 16.332zm-50.766-56.736a1.75 1.75 0 0 1 -.127-2.472c.182-.2.366-.4.551-.6a1.75 1.75 0 1 1 2.567 2.383c-.174.187-.346.374-.517.563a1.749 1.749 0 0 1 -2.474.126zm58.722 42.6-.731 1.043a1.75 1.75 0 0 1 -2.864-2.011l.735-1.048a1.75 1.75 0 0 1 2.86 2.016z" fill="url(#a)"/></svg>