<svg height="512" viewBox="0 0 128 128" width="512" xmlns="http://www.w3.org/2000/svg" xmlns:xlink="http://www.w3.org/1999/xlink"><linearGradient id="a" gradientUnits="userSpaceOnUse" x1="105.542" x2="22.838" y1="113.349" y2="30.645"><stop offset="0" stop-color="#da1f1f"/><stop offset="1" stop-color="#ffd236"/></linearGradient><path d="m38.167 26.806a1.75 1.75 0 0 1 1.75-1.75h1a1.75 1.75 0 0 1 0 3.5h-1a1.751 1.751 0 0 1 -1.75-1.75zm73.5 76.194h-11.309l3.08-40.219a1.759 1.759 0 0 0 -.306-1.13l-6.186-8.935a1.75 1.75 0 1 0 -2.878 1.992l5.832 8.425-3.053 39.867h-4.347a1.75 1.75 0 0 0 0 3.5h19.167a1.75 1.75 0 0 0 0-3.5zm-25.917 0h-1a1.75 1.75 0 0 0 0 3.5h1a1.75 1.75 0 0 0 0-3.5zm-5.375 1.75a1.749 1.749 0 0 1 -1.75 1.75h-62.292a1.75 1.75 0 1 1 0-3.5h16.9l-7.227-40.8a1.755 1.755 0 0 1 .117-1l5.513-12.751-8.918-6.479a1.751 1.751 0 0 1 -.6-2.057l5.405-13.748a1.752 1.752 0 0 1 1.629-1.109h5.181a1.75 1.75 0 0 1 0 3.5h-3.989l-4.473 11.378 8.5 6.171h5.025l-2.883-4.688a1.754 1.754 0 0 1 -.184-1.425l1.5-4.947a1.75 1.75 0 1 1 3.35 1.016l-1.279 4.193 3.6 5.851h47.488l11.28-6.433-2.09-9.522-12.112-5.109-26.307 3.016 5.309 4.148a1.747 1.747 0 0 1 .673 1.379v4.693a1.75 1.75 0 0 1 -3.5 0v-3.839l-7.528-5.882h-8.755a1.75 1.75 0 0 1 0-3.5h9.257l30.909-3.544a1.743 1.743 0 0 1 .879.126l13.37 5.639a1.751 1.751 0 0 1 1.029 1.238l2.561 11.664a1.75 1.75 0 0 1 -.842 1.895l-12.8 7.3a1.756 1.756 0 0 1 -.867.229h-14.187l-3.267 6.545 6.787 20.677 3.884-6.025a1.752 1.752 0 0 1 1.036-.746l7.4-1.9a1.75 1.75 0 0 1 .869 3.391l-6.736 1.731-5.484 8.493-4.992 8.556 1.625 12.675h.236a1.749 1.749 0 0 1 1.75 1.75zm-43.592-1.75h28.049l-1.619-7.724-2.763-.813-3.53 4a1.756 1.756 0 0 1 -1.206.589l-11.663.711a1.75 1.75 0 0 1 -.213-3.494l6.168-.376 5.481-20.749-6.719-19.544a1.75 1.75 0 1 1 3.31-1.137l6.892 20.049a1.747 1.747 0 0 1 .037 1.015l-5.322 20.144 1.091-.067 3.787-4.292a1.758 1.758 0 0 1 1.806-.521l4.837 1.423a1.748 1.748 0 0 1 1.218 1.319l1.984 9.467h6.452l-1.644-12.82a1.755 1.755 0 0 1 .224-1.105l4.914-8.423-7.909-24.1a1.749 1.749 0 0 1 .1-1.328l2.811-5.623h-38.4l-5.4 12.5 4.263 24.08 3.807-6.242a1.723 1.723 0 0 1 .278-.346l5.69-5.5a1.749 1.749 0 1 1 2.432 2.515l-5.528 5.345-5.769 9.447z" fill="url(#a)"/></svg>