<svg height="512" viewBox="0 0 128 128" width="512" xmlns="http://www.w3.org/2000/svg" xmlns:xlink="http://www.w3.org/1999/xlink"><linearGradient id="a" gradientUnits="userSpaceOnUse" x1="103.76" x2="24.24" y1="114.205" y2="34.684"><stop offset="0" stop-color="#da1f1f"/><stop offset="1" stop-color="#ffd236"/></linearGradient><path d="m103.856 98.717h-9.765v-13.946a8.448 8.448 0 0 0 -4.409-7.413 7.455 7.455 0 0 0 1.472-5.049l-2.193-31.09a1.75 1.75 0 0 0 -3.492.246l2.193 31.09a3.873 3.873 0 0 1 -.965 2.924 2.5 2.5 0 0 1 -1.828.851h-41.739a2.5 2.5 0 0 1 -1.828-.85 3.885 3.885 0 0 1 -.965-2.925l2.522-35.742.785.96a1.745 1.745 0 0 0 1.06.618l5.6.961a1.672 1.672 0 0 0 .3.026 1.75 1.75 0 0 0 .296-3.478l-4.959-.851-4.058-4.969h18.73l-5.374 7.57a1.751 1.751 0 0 0 -.308.782l-1.961 14.668a1.749 1.749 0 0 0 .826 1.727l4.938 3a1.747 1.747 0 0 0 .909.254h8.714a1.75 1.75 0 0 0 .91-.254l4.937-3a1.748 1.748 0 0 0 .825-1.727l-1.736-13 10-1.715a1.743 1.743 0 0 0 1.059-.618l6.806-8.333a1.75 1.75 0 0 0 -1.355-2.857h-1.875l-.393-5.569c-.255-3.606-3.015-6.431-6.285-6.431h-15.25a1.75 1.75 0 0 0 0 3.5h15.25a3.148 3.148 0 0 1 2.793 3.177l.376 5.323h-40.838l.376-5.323a3.149 3.149 0 0 1 2.793-3.177h4.35a1.75 1.75 0 1 0 0-3.5h-4.35c-3.27 0-6.03 2.825-6.284 6.431l-.393 5.569h-1.88a1.75 1.75 0 0 0 -1.355 2.857l2.792 3.419-2.784 39.45a7.456 7.456 0 0 0 1.472 5.048 8.448 8.448 0 0 0 -4.409 7.414v8.6a1.75 1.75 0 0 0 3.5 0v-8.6a4.946 4.946 0 0 1 4.942-4.941 1.8 1.8 0 0 0 .267-.027c.17.015.34.027.512.027h41.739c.172 0 .343-.012.512-.027a1.83 1.83 0 0 0 .268.027 4.947 4.947 0 0 1 4.942 4.941v13.952h-6.674v-7.05a1.75 1.75 0 0 0 -3.5 0v8.8a1.749 1.749 0 0 0 1.75 1.75h19.939v7.667h-76.213v-7.667h41.107a1.75 1.75 0 0 0 0-3.5h-19.417v-7.05a1.75 1.75 0 0 0 -3.5 0v7.05h-19.94a1.751 1.751 0 0 0 -1.75 1.75v11.167a1.751 1.751 0 0 0 1.75 1.75h79.713a1.75 1.75 0 0 0 1.75-1.75v-11.167a1.75 1.75 0 0 0 -1.75-1.75zm-35.989-44.134h-7.734l-3.542-2.151 1.751-13.105 5.658-7.97 5.657 7.97 1.752 13.105zm14.193-19.531-9.935 1.7-4.737-6.673h18.73zm-7.81 67.165a1.75 1.75 0 0 1 0-3.5h1.05a1.75 1.75 0 0 1 0 3.5zm-18.375-85.884a1.751 1.751 0 0 1 1.75-1.75h1.125a1.75 1.75 0 1 1 0 3.5h-1.125a1.75 1.75 0 0 1 -1.75-1.75zm19.17 51a1.749 1.749 0 0 1 -1.75 1.75h-18.59a1.75 1.75 0 0 1 0-3.5h18.595a1.75 1.75 0 0 1 1.745 1.75z" fill="url(#a)"/></svg>