<svg id="Layer_1" enable-background="new 0 0 128 128" viewBox="0 0 128 128" xmlns="http://www.w3.org/2000/svg" xmlns:xlink="http://www.w3.org/1999/xlink"><linearGradient id="SVGID_1_" gradientTransform="matrix(1 0 0 -1 0 130)" gradientUnits="userSpaceOnUse" x1="97.97" x2="30.051" y1="30.833" y2="98.753"><stop offset="0" stop-color="#da1f1f"/><stop offset="1" stop-color="#ffd236"/></linearGradient><path d="m83.5 94.4v.8c0 1-.8 1.8-1.8 1.8s-1.7-.8-1.7-1.7v-.8c0-1 .8-1.8 1.8-1.8s1.7.8 1.7 1.7zm28.1-40.1-17.6-24.6c-.5-.8-1.6-1-2.4-.5s-1 1.6-.5 2.4c0 0 6.9 9.6 6.9 9.6h-4.4c-1 0-1.8.8-1.8 1.8s.8 1.8 1.8 1.8h6.9l6.3 8.9h-7.2c-1 0-1.8.8-1.8 1.8s.8 1.8 1.8 1.8h6.1c-3.4 3.6-6 7.7-7.9 12.3h-7.2c-1 0-1.8.8-1.8 1.8s.8 1.8 1.8 1.8h6c-1.1 3.7-1.6 7.3-1.6 11.9 0 3.8-.7 7.5-2.2 11.1h-3.7c-1 0-1.8.8-1.8 1.8s.8 1.8 1.8 1.8h2c-1.9 3.4-4.5 6.5-7.6 8.9v-6.6c0-1-.8-1.8-1.8-1.8s-1.8.8-1.8 1.8v9.9c0 1.2 1.3 2.3 2.7 1.5 5.5-3.5 9.9-8 13.1-15.1 1.8-4.1 2.8-8.6 2.8-13.2 0-5.6.8-9.6 2.4-13.7 2.1-5.5 6.4-11.4 10.4-14.5.7-.9.8-1.9.3-2.7zm-59-29.9h.8c1 0 1.8-.8 1.8-1.8s-.8-1.8-1.8-1.8h-.8c-1 0-1.8.8-1.8 1.8s.8 1.8 1.8 1.8zm17.3 51.8-.8 12.8c-.1 1-.9 1.7-1.9 1.6s-1.7-.9-1.6-1.9l1.2-17.3c.1-.8-.2-1.5-.7-2.1-1.1-1.1-2.9-1.1-4 0-.5.6-.8 1.3-.7 2.1l1.6 23.1h4c1 0 1.8.8 1.8 1.8s-1 1.7-2 1.7h-5.7c-.9 0-1.7-.7-1.7-1.6l-1.4-20.2c-8.4-2.4-14.5-9.8-15.3-18.5l-.6-5.9h-4.8c-1 0-1.8-.8-1.8-1.8s.8-1.8 1.8-1.8h4.5l-2-20.8-9.8 13.9h4.4c1 0 1.8.8 1.8 1.8s-.8 1.8-1.8 1.8h-6.9l-6.3 8.9h7.2c1 0 1.8.8 1.8 1.8s-.8 1.8-1.8 1.8h-6.1c3.4 3.6 6 7.7 7.9 12.3h7.2c1 0 1.8.8 1.8 1.8s-.9 1.5-1.8 1.5h-6c1.1 3.7 1.6 7.4 1.6 11.3 0 5.1.7 8.2 2.2 11.7h3.7c1 0 1.8.8 1.8 1.8s-.8 1.8-1.8 1.8h-2c1.9 3.4 4.5 6.5 7.6 8.9v-22.2h-5.7c-1 0-1.8-.8-1.8-1.8s.8-1.8 1.8-1.8h5.7v-7.7c0-1 .8-1.8 1.8-1.8s1.8.8 1.8 1.8v36.6c0 1.3-1.4 2.3-2.7 1.5-5.6-3.5-10.1-8.5-12.8-14.4-1.2-2.7-3.1-7-3.1-14.5 0-4.1-.7-8.1-2-11.9-2.1-6-5.9-11.5-10.8-15.7-.7-.6-.8-1.6-.3-2.3l8.7-12.2s11-15.4 14.6-20.5c.3-.4.7-.7 1.4-.7h6.1c1 0 1.8.8 1.8 1.8s-.8 1.8-1.8 1.8h-4.2l.8 8.3h35.6c1 0 1.8.8 1.8 1.8s-.8 1.8-1.8 1.8h-35.2l2 21.2c.6 6.8 5.1 12.7 11.6 15.1v-.7c-.2-3.5 2.4-6.4 5.8-6.7 3.7-.3 6.9 2.8 6.7 6.7 0 .2-.1.7-.1.7 6.4-2.4 10.9-8.2 11.6-15.1l3.1-33h-15.5l-.8 5.2c-.1.9-.9 1.5-1.7 1.5h-5.7c-.9 0-1.6-.6-1.7-1.5l-2-12.9c-.1-1 .5-2 1.7-2h9.7c1.4 0 1.8 1.3 1.7 2-.2 1.1-.7 4.3-.7 4.3h16.9c1 0 1.8.8 1.8 1.8 0 .5-2.4 25.6-2.4 25.6h4.5c1 0 1.8.8 1.8 1.8s-.8 1.8-1.8 1.8h-4.8l-.6 5.9c-.2 2.3-.8 4.6-1.8 6.7v18.4h5.7c1 0 1.8.8 1.8 1.8s-.8 1.8-1.8 1.8h-5.7v2.6c0 1-.8 1.8-1.8 1.8s-1.7-1.4-1.7-2.4v-19c-2.7 3.1-6.2 5.3-10.1 6.4zm-4.6-48.7 1.5-9.4h-5.6l1.5 9.4zm-13.4 16.2c-1 0-1.8.8-1.8 1.8s.8 1.8 1.8 1.8h7.5c1 0 1.8-.8 1.8-1.8s-.8-1.8-1.8-1.8zm12.9 0c-1 0-1.8.8-1.8 1.8v9c0 1 .8 1.8 1.8 1.8s1.8-.8 1.8-1.8v-7.3h9.6c1 0 1.8-.8 1.8-1.8s-.8-1.8-1.8-1.8z" fill="url(#SVGID_1_)"/></svg>