<svg id="Layer_1" enable-background="new 0 0 128 128" viewBox="0 0 128 128" xmlns="http://www.w3.org/2000/svg" xmlns:xlink="http://www.w3.org/1999/xlink"><linearGradient id="SVGID_1_" gradientTransform="matrix(1 0 0 -1 0 130)" gradientUnits="userSpaceOnUse" x1="102.849" x2="23.775" y1="8.707" y2="87.781"><stop offset="0" stop-color="#da1f1f"/><stop offset="1" stop-color="#ffd236"/></linearGradient><path d="m43.2 52.6.5 1.2c.4.9 0 1.9-.9 2.3s-1.9 0-2.3-.9l-.5-1.2c-.4-.9.1-1.9 1-2.3.8-.5 1.8 0 2.2.9zm-5.5-4.1c.4.9 1.4 1.3 2.3.9s1.3-1.4.9-2.2l-1.8-4.4 10-19.4 2.5 6.2c.3.7.9 1.1 1.6 1.1h4.3c1 0 1.8-.8 1.8-1.8s-.8-1.8-1.8-1.8h-3.2l-2.7-6.5 21.4-2.5c1-.1 1.7-1 1.6-1.9s-1-1.7-1.9-1.6c0 0 0 0-.1 0l-23.7 2.8c-.6.1-1.1.4-1.4.9l-11.8 23.5c-.2.5-.3 1-.1 1.5zm47.6 56.3c1 0 1.8-.8 1.8-1.8s-.8-1.8-1.8-1.8h-1.1c-1 0-1.8.8-1.8 1.8s.8 1.8 1.8 1.8zm28.1-1.8v7c0 1-.8 1.7-1.7 1.8h-95.4c-1 0-1.7-.8-1.8-1.7v-7c0-1 .8-1.7 1.7-1.8h60.3c1 0 1.8.8 1.8 1.8s-.8 1.8-1.8 1.8h-58.4v3.5h91.8v-3.5h-17.6c-1 0-1.8-.8-1.8-1.8s.8-1.8 1.8-1.8h10.3v-3.5h-79c-1 0-1.8-.8-1.8-1.8s.8-1.8 1.8-1.8h7.3l5.7-5.1 2.7-4.6c.2-.4.6-.7 1-.8l7.3-2.2v-8.9l-4.7-11.5c-.4-.9.1-1.9 1-2.3s1.9.1 2.3 1l4.8 11.8c.1.2.1.4.1.7v8.2l.9-.3c.8-.3 1.7.2 2.1 1l3.1 7.1c.4.9-.1 1.9-1 2.3-.9.3-1.8 0-2.2-.9l-2.4-5.7-9.6 2.9-2.5 4.3c-.1.2-.2.3-.3.4l-3 2.7h32.4l5.9-5.3c.5-.4 1.1-.6 1.7-.4l2.2.7 6-11.2-5.7-14.8-5.1 4.2v4c0 1-.8 1.8-1.8 1.8s-1.8-.8-1.8-1.8v-4.8c0-.5.2-1 .6-1.4l7.3-6 10.7-21.4-12.2-14.8c-.6-.7-.5-1.8.2-2.5.7-.6 1.8-.5 2.5.2l13 15.7c.4.5.5 1.3.2 1.9l-11 22.1 6.6 17.1c.2.5.2 1-.1 1.5l-5.3 10 2.8-.9c.5-.1 1-.1 1.4.2l10.3 5.9h7.5c1 0 1.7.8 1.8 1.7v5.3h5.5c.8-.1 1.6.7 1.6 1.7zm-39.6-8.7h16.2l-4.4-2.5-5.3 1.6c-.3.1-.7.1-1.1 0l-3.2-1.2zm-24.4-46.5v-8.6h4.4c1.8 0 2.5.3 2.9 1 .3.5.5 1.1.4 1.6-.2 1.3-1.1 2-2.1 2.2.8.2 1.2.7 1.5 1.3s1.3 2.5 1.3 2.5h-3s-1.1-2-1.4-2.6c-.2-.4-.5-.9-1.1-.9h-.3v3.5zm2.6-5.1h1.2c.8 0 1.2-.3 1.2-.9 0-.5-.3-.9-1.3-.9h-1.1zm6.5 2.7h2.5v2.4h-2.5zm4.3-6.2h2.7v8.6h-2.7zm4.4 6.2h2.5v2.4h-2.5zm4.1-6.2h4.4c1.8 0 2.9.9 2.9 2.6 0 1.2-.5 2.8-3.2 2.8h-1.4v3.2h-2.7zm2.7 3.7h.7c1.1 0 1.4-.5 1.4-.9 0-.5-.3-1-1.3-1h-.8z" fill="url(#SVGID_1_)"/></svg>