<svg height="512" viewBox="0 0 128 128" width="512" xmlns="http://www.w3.org/2000/svg" xmlns:xlink="http://www.w3.org/1999/xlink"><linearGradient id="a" gradientUnits="userSpaceOnUse" x1="70.49" x2="34.575" y1="70.49" y2="34.575"><stop offset="0" stop-color="#da1f1f"/><stop offset="1" stop-color="#ffd236"/></linearGradient><path d="m22.765 67.354.3-1.333a1.75 1.75 0 1 1 3.412.778l-.3 1.333a1.75 1.75 0 1 1 -3.412-.778zm90.382-41.508a9.119 9.119 0 0 1 -5.94 6.612l-27.924 9.658a1.75 1.75 0 1 1 -1.144-3.308l7.943-2.748-4.049-13.045-33.364 7.585a24.11 24.11 0 0 0 -18.069 18.069l-2.781 12.244a1.748 1.748 0 0 1 -1.7 1.362 1.664 1.664 0 0 1 -.389-.044 1.747 1.747 0 0 1 -1.319-2.093l2.785-12.244a27.621 27.621 0 0 1 20.7-20.7l54.28-12.347a9.172 9.172 0 0 1 10.973 11zm-23.756 9.07 3.683-1.274-2.524-8.131a1.75 1.75 0 1 1 3.342-1.037l2.491 8.026 3.684-1.274-3.567-11.502-11.045 2.512zm18.829-15.139a5.65 5.65 0 0 0 -5.271-1.52l-3.029.689 3.455 11.133 2.687-.93a5.673 5.673 0 0 0 2.158-9.372zm-37.603 21.633-1.4.483a1.75 1.75 0 0 0 .571 3.4 1.729 1.729 0 0 0 .571-.1l1.4-.482a1.75 1.75 0 0 0 -1.143-3.309zm-6.852 4.222a1.751 1.751 0 0 1 -1.082 2.226 23.84 23.84 0 0 0 -14.825 14.825l-15.4 44.524a9.119 9.119 0 0 1 -6.612 5.94 9.238 9.238 0 0 1 -2.079.238 9.179 9.179 0 0 1 -8.922-11.211l6.482-28.5a1.749 1.749 0 1 1 3.412.775l-1.724 7.581 13.045 4.052 8.49-24.544a27.324 27.324 0 0 1 16.988-16.988 1.751 1.751 0 0 1 2.227 1.082zm-41.529 39.823-.866 3.81 12.272 3.81 1.274-3.684zm10.264 10.928-11.906-3.7-.866 3.81 6.907 2.143a1.75 1.75 0 1 1 -1.037 3.343l-6.652-2.059-.689 3.029a5.673 5.673 0 0 0 10.892 3.114z" fill="url(#a)"/></svg>