<svg height="512" viewBox="0 0 128 128" width="512" xmlns="http://www.w3.org/2000/svg" xmlns:xlink="http://www.w3.org/1999/xlink"><linearGradient id="a" gradientUnits="userSpaceOnUse" x1="104.153" x2="35.105" y1="103.384" y2="34.336"><stop offset="0" stop-color="#da1f1f"/><stop offset="1" stop-color="#ffd236"/></linearGradient><path d="m65.039 29.437a1.75 1.75 0 0 1 2.3-.916l.726.313a1.75 1.75 0 0 1 -1.385 3.215l-.725-.313a1.749 1.749 0 0 1 -.916-2.299zm-45.288 37.089a1.749 1.749 0 0 1 .1-2.472l8.919-8.225 1.483-13.162a1.744 1.744 0 0 1 .355-.862l-.008-.005 9.62-12.557a1.742 1.742 0 0 1 .887-.612l15.019-4.5a1.752 1.752 0 0 1 1.193.067l4.681 2.021a1.751 1.751 0 0 1 -1.386 3.215l-2.457-1.06-.952 10.426.976 4.482 2.119 1.318a1.75 1.75 0 1 1 -1.848 2.972l-2.752-1.711a1.749 1.749 0 0 1 -.786-1.114l-.756-3.473-12.279 4.734a1.768 1.768 0 0 1 -.911.095l-7.442-1.216-1.351 11.983a1.749 1.749 0 0 1 -.552 1.09l-9.4 8.666a1.75 1.75 0 0 1 -2.474-.1zm15.409-24.919 5.9.964 12.73-4.906.858-9.435-12 3.591zm14.55 56.608-.756.129a1.75 1.75 0 0 0 .588 3.451l.756-.129a1.75 1.75 0 0 0 -.588-3.451zm63.677-5.138a1.75 1.75 0 0 1 -.749 1.775l-13.166 8.792a1.751 1.751 0 0 1 -.972.294 1.65 1.65 0 0 1 -.271-.021l-31.832-5-10.427 1.783a1.661 1.661 0 0 1 -.3.026 1.75 1.75 0 0 1 -.293-3.475l10.64-1.817 29.38-7.3a1.8 1.8 0 0 1 .807-.009l12.552 2.829-6.1-14.739a1.749 1.749 0 0 1 .04-1.427l7.088-14.755-7.6-24.339-20.812 2.44a1.79 1.79 0 0 1 -.9-.131l-7.861-3.403a1.75 1.75 0 0 1 1.389-3.209l7.436 3.2 21.788-2.555a1.749 1.749 0 0 1 1.874 1.217l8.242 26.384a1.749 1.749 0 0 1 -.093 1.279l-7.047 14.677 7.088 17.135-.013.01a1.716 1.716 0 0 1 .112.339zm-6.085 1.13-11.459-2.583-20.643 5.132 22.9 3.6zm-19.21-28.127a1.75 1.75 0 0 0 -1.146 2.193l3.5 11.167a1.75 1.75 0 0 0 1.669 1.227 1.75 1.75 0 0 0 1.671-2.273l-3.5-11.167a1.749 1.749 0 0 0 -2.194-1.147zm-18.011-18.923a1.75 1.75 0 0 0 -2.43 2.52l4.666 4.5a1.756 1.756 0 0 0 .9.462l8.14 1.47.469 9.469-4.468 4.622a1.749 1.749 0 0 0 -.492 1.217v10.5a1.75 1.75 0 0 0 3.5 0v-9.792l4.508-4.658a1.753 1.753 0 0 0 .49-1.3l-.5-10.1 5.614-1.094a1.751 1.751 0 0 0 1.172-.829l3.411-5.787a1.751 1.751 0 1 0 -3.016-1.778l-3.01 5.109-4.346.848-.325-6.536a1.75 1.75 0 1 0 -3.5.174l.315 6.351-6.818-1.232zm-8.681 24.294-18.366 2.317-2.011-6.416 5.754-.539a1.748 1.748 0 0 0 1.216-.666l5.375-6.882a1.75 1.75 0 0 0 -2.759-2.155l-4.809 6.164.675-4.844a1.75 1.75 0 0 0 -3.467-.485l-.808 5.782-6.512.61a1.75 1.75 0 0 0 .161 3.492 1.531 1.531 0 0 0 .165-.008l1.447-.135 2.439 7.781-3.916 6.622a1.75 1.75 0 0 0 3.013 1.781l2.312-3.908 1.762 5.624a1.75 1.75 0 0 0 3.34-1.047l-2.311-7.377 14.589-1.841-1.628 5.63a1.749 1.749 0 0 0 1.194 2.167 1.724 1.724 0 0 0 .488.07 1.752 1.752 0 0 0 1.68-1.264l1.126-3.892 2.062 5.557a1.751 1.751 0 0 0 3.279-1.219l-3.636-9.792a1.754 1.754 0 0 0 -1.854-1.127zm-17.43 20.98-4.072 2.007a1.737 1.737 0 0 0 -.714.648l-2.784 4.5-12.171-9.786-6.22-20.622a1.75 1.75 0 1 0 -3.351 1.01l6.377 21.14a1.743 1.743 0 0 0 .578.859l14.13 11.37c.015.012.034.016.049.027.043.032.081.069.127.1a1.758 1.758 0 0 0 .232.1c.053.023.1.051.157.069a1.741 1.741 0 0 0 .531.09 1.632 1.632 0 0 0 .295-.025l7.078-1.209a1.749 1.749 0 1 0 -.588-3.449l-3.255.556 1.52-2.457 3.622-1.785a1.749 1.749 0 1 0 -1.547-3.138z" fill="url(#a)"/></svg>