<svg id="Layer_1" enable-background="new 0 0 128 128" viewBox="0 0 128 128" xmlns="http://www.w3.org/2000/svg" xmlns:xlink="http://www.w3.org/1999/xlink"><linearGradient id="SVGID_1_" gradientTransform="matrix(1 0 0 -1 0 130)" gradientUnits="userSpaceOnUse" x1="98.342" x2="18.728" y1="25.905" y2="105.519"><stop offset="0" stop-color="#da1f1f"/><stop offset="1" stop-color="#ffd236"/></linearGradient><path d="m54.2 20.5c-.1-1 .6-1.8 1.6-1.9.3 0 .6 0 .9-.1 1-.1 1.8.7 1.8 1.7.1 1-.7 1.8-1.7 1.8-.3 0-.9.1-1 .1-.8.1-1.5-.6-1.6-1.6zm3.1 24.9h2.5c1.8-.1 3.4-.1 4.6 1 .8.8 1.2 1.9 1.1 3 0 3.2-2.2 6-5.3 6.8v2.4c0 .5.4.9.9.9s.9-.4.9-.9c0-1 .8-1.8 1.8-1.8s1.8.8 1.8 1.8c0 2.4-2 4.4-4.4 4.4-1 0-1.9-.3-2.7-.9-.8.6-1.7.9-2.7.9-2.5 0-4.4-2-4.4-4.4 0-1 .8-1.8 1.8-1.8s1.8.8 1.8 1.8c0 .5.4.9.9.9s.9-.4.9-.9v-2.4c-3.1-.8-5.2-3.6-5.3-6.8-.1-1.1.3-2.2 1.1-3 1.2-1.2 2.9-1.1 4.7-1zm-2.2 3.5c-.3 2.4 1.5 4 3.5 4s3.9-1.7 3.4-4c-.7-.1-6.2-.1-6.9 0zm-13-7.5c0 1 .8 1.8 1.8 1.8s1.8-.8 1.8-1.8c0-1.3 1.1-2.4 2.4-2.4s2.4 1.1 2.4 2.4c0 1 .8 1.8 1.8 1.8s1.8-.8 1.8-1.8c0-3.2-2.6-5.9-5.9-5.9s-6.1 2.7-6.1 5.9zm24.6 0c0-1.3 1.1-2.4 2.4-2.4s2.4 1.1 2.4 2.4c0 1 .8 1.8 1.8 1.8s1.8-.8 1.8-1.8c0-3.2-2.6-5.9-5.9-5.9s-5.9 2.6-5.9 5.9c0 1 .8 1.8 1.8 1.8s1.6-.8 1.6-1.8zm4.1 68.5h-.7c-1 0-1.8.8-1.8 1.8s.8 1.8 1.8 1.8h.7c1 0 1.8-.8 1.8-1.8s-.9-1.8-1.8-1.8zm37-24c0 3.4-1.7 6.5-4.3 8.1-5 3.2-9.5 1.1-11.1 0-1.7-1.2-3.9-1.7-5.9-1.2-1.8.5-3.5 1.7-4.6 3.3l.4 5.4c4.6 1.3 7.8 5.5 7.8 10.3 0 1-.8 1.8-1.8 1.8h-11.2c-1 0-1.8-.8-1.8-1.8s.8-1.8 1.8-1.8h9.2c-.8-3.2-3.7-5.4-7-5.4h-41.6c-3.3 0-6.1 2.2-7 5.4h32.4c1 0 1.8.8 1.8 1.8s-.8 1.8-1.8 1.8h-34.3c-1 0-1.7-.8-1.8-1.8 0-4.8 3.2-9 7.8-10.3l1.7-23.1c.1-1 .9-1.7 1.9-1.6s1.7.9 1.6 1.9l-1.7 22.3h9.7v-7.1c0-5.8 4.7-10.6 10.6-10.6 5.8 0 10.6 4.7 10.6 10.6v2.6c0 1-.8 1.8-1.8 1.8s-1.8-.8-1.8-1.8v-2.6c0-3.9-3.2-7.1-7.1-7.1s-7.1 3.2-7.1 7.1v7.1h27.3l-2-26.8c-13 8.7-30.3 7-41.3-4.1l-3.9 3.6c-.7.7-1.8.6-2.5-.1s-.6-1.8.1-2.5l4-3.7c-.8-1-1.5-2-2.1-3.1l-4.4 2.8c-.8.5-1.9.3-2.4-.5s-.3-1.9.5-2.4l4.7-3c-.5-1.1-.9-2.2-1.3-3.4 0 0-4 1.8-5.4 2.4-.6.3-1.7.2-2.3-.8-.6-1.2.2-2.1.8-2.4l5.9-2.6c-1.3-6.9 0-14.1 3.6-20.2-3-5.5-4.1-11.9-3.2-18.1.1-.9 1-1.6 1.9-1.5 5.5.9 10.6 3.4 14.7 7.2 1.2-.6 2.5-1.1 3.8-1.6.9-.3 1.9.1 2.2 1.1s-.1 1.9-1.1 2.2c-11.1 3.5-18.8 13.9-19 25.6 0 1.3.1 2.5.3 3.8l5.8-2.5c.9-.4 1.9 0 2.3.8.4.9 0 1.9-.8 2.3 0 0-6.5 2.9-6.5 2.9.3 1 .6 2 1 2.9l6.1-3.9c.8-.5 1.9-.3 2.4.6.5.8.3 1.9-.5 2.4l-6.4 4.1c.5.9 1.1 1.8 1.8 2.6l5.5-5.1c.7-.7 1.8-.6 2.5.1s.6 1.8-.1 2.5c0 0-5.6 5.2-5.6 5.2 11.6 11.2 29.9 11.2 41.3-.1l-5.6-5.1c-.7-.7-.7-1.8-.1-2.5.7-.7 1.7-.7 2.4-.1l5.5 5.1c.6-.8 1.2-1.7 1.8-2.6l-6.4-4.1c-.8-.5-1.1-1.6-.6-2.4s1.6-1.1 2.4-.6l6.1 3.9c.4-.9.8-1.9 1-2.9l-6.4-2.8c-.9-.4-1.3-1.4-1-2.3s1.4-1.3 2.3-1c0 0 5.9 2.6 5.9 2.6.2-1.3.3-2.5.3-3.8 0-13.3-10.3-24.8-24-26.8-1-.1-1.6-1-1.5-2s1-1.6 2-1.5c2.2.2 6.1 1.2 9.5 2.9 4.1-3.8 9.2-6.3 14.7-7.2.9-.1 1.8.6 1.9 1.5.5 3.9.3 7.8-.6 11.6-.3.9-1.2 1.5-2.2 1.2-.9-.3-1.4-1.2-1.2-2.1.7-2.8.9-5.6.7-8.5-3.7.9-7.2 2.7-10.1 5.2 8.8 5.5 14.1 15.1 14.3 25.5 0 1.8-.2 3.5-.5 5.3l5.9 2.6c.9.4 1.3 1.4 1 2.3s-1.4 1.3-2.3 1c0 0-5.5-2.4-5.5-2.4-.4 1.2-.8 2.3-1.3 3.4l4.7 3c.8.5 1.1 1.6.5 2.4s-1.6 1.1-2.4.5l-4.4-2.8c-.6 1.1-1.4 2.1-2.1 3.1l4 3.7c.7.6.8 1.8.1 2.5-.6.7-1.8.8-2.5.1 0 0-4-3.6-4-3.6-.5.5-1.1 1.1-1.6 1.5l1.5 19.8c1.2-1 2.6-1.7 4.1-2 3-.6 6.1 0 8.6 1.7 2 1.4 4.6 1.5 6.7.4 2-1.1 3.3-3.3 3.3-5.6 0-2.9-1.9-5.6-5.3-7.6-.8-.5-1.1-1.6-.6-2.4s1.6-1.1 2.4-.6c6.4 3.6 7.3 8.2 7.3 10.7zm-74.8-55c2.2-2.9 4.9-5.3 8-7.3-2.9-2.5-6.4-4.3-10.1-5.2-.4 4.3.4 8.6 2.1 12.5z" fill="url(#SVGID_1_)"/></svg>