<svg id="Layer_2" height="512" viewBox="0 0 128 128" width="512" xmlns="http://www.w3.org/2000/svg" xmlns:xlink="http://www.w3.org/1999/xlink" data-name="Layer 2"><linearGradient id="linear-gradient" gradientUnits="userSpaceOnUse" x1="106.487" x2="21.514" y1="115.227" y2="30.254"><stop offset="0" stop-color="#3f51b5"/><stop offset="1" stop-color="#00bcd4"/></linearGradient><path d="m85.175 78.4a1.75 1.75 0 1 1 3.013-1.781l4.364 7.381a1.75 1.75 0 1 1 -3.013 1.781zm16.8 40.554a18.646 18.646 0 0 1 -15.941 9.046h-44.068a18.56 18.56 0 0 1 -15.976-28.006l24.26-41.032v-33.21h-5.375a1.75 1.75 0 0 1 -1.75-1.752v-9.664a1.75 1.75 0 0 1 1.75-1.75h4.994l-1.313-5.5a5.751 5.751 0 0 1 5.594-7.086h19.7a5.751 5.751 0 0 1 5.593 7.084l-1.313 5.5h4.994a1.75 1.75 0 0 1 1.75 1.75v9.666a1.75 1.75 0 0 1 -1.75 1.75h-5.374v33.21l4.5 7.611a1.75 1.75 0 1 1 -3.013 1.781l-4.744-8.023a1.747 1.747 0 0 1 -.244-.891v-33.686h-20.499v33.688a1.747 1.747 0 0 1 -.244.891l-24.506 41.444a15.06 15.06 0 0 0 12.966 22.725h44.068a15.06 15.06 0 0 0 12.966-22.725l-3.521-5.954a1.75 1.75 0 1 1 3.011-1.781l3.521 5.954a18.551 18.551 0 0 1 -.039 18.957zm-48.507-106.368h21.064l1.507-6.314a2.25 2.25 0 0 0 -2.189-2.772h-19.7a2.25 2.25 0 0 0 -2.189 2.771zm-6.843 9.666h34.75v-6.166h-34.75zm11.981 90.178h10.788a4.451 4.451 0 0 0 4.447-4.446v-3.055h3.292a5.36 5.36 0 0 0 1.315-10.557v-6.728a9.852 9.852 0 0 0 -9.841-9.844h-9.214a1.75 1.75 0 0 0 0 3.5h9.215a6.348 6.348 0 0 1 6.341 6.341v8.315a1.75 1.75 0 0 0 1.75 1.75h.435a1.86 1.86 0 1 1 0 3.72h-5.043a1.75 1.75 0 0 0 -1.75 1.75v4.8a.948.948 0 0 1 -.947.946h-10.788a.948.948 0 0 1 -.947-.946v-4.8a1.75 1.75 0 0 0 -1.75-1.75h-5.042a1.86 1.86 0 1 1 0-3.72h.433a1.75 1.75 0 0 0 1.75-1.75v-8.312a1.75 1.75 0 0 0 -3.5 0v6.729a5.36 5.36 0 0 0 1.315 10.557h3.292v3.055a4.451 4.451 0 0 0 4.449 4.445zm.422-22.369c-1.707 0-3.09.248-3.09 2.218a3.122 3.122 0 1 0 6.18 0c0-1.97-1.384-2.218-3.09-2.218zm9.945 5.786a3.355 3.355 0 0 0 3.09-3.568c0-1.97-1.384-2.218-3.09-2.218s-3.09.248-3.09 2.218a3.355 3.355 0 0 0 3.089 3.568zm-5.788 1.733a1.75 1.75 0 1 0 0 3.5h1.63a1.75 1.75 0 1 0 0-3.5z" fill="url(#linear-gradient)"/></svg>