<svg id="Layer_2" height="512" viewBox="0 0 128 128" width="512" xmlns="http://www.w3.org/2000/svg" xmlns:xlink="http://www.w3.org/1999/xlink" data-name="Layer 2"><linearGradient id="linear-gradient" gradientUnits="userSpaceOnUse" x1="101.175" x2="11.057" y1="111.778" y2="21.66"><stop offset="0" stop-color="#3f51b5"/><stop offset="1" stop-color="#00bcd4"/></linearGradient><path d="m42.25 84.228a1.75 1.75 0 0 1 -1.75 1.75h-6.025a1.75 1.75 0 1 1 0-3.5h6.025a1.75 1.75 0 0 1 1.75 1.75zm85.75-8.09v8.09a1.75 1.75 0 0 1 -1.75 1.75h-30.632v21.044a1.75 1.75 0 0 1 -1.75 1.75 10.463 10.463 0 0 1 -7.018-2.706v8.021a10.529 10.529 0 0 1 -10.518 10.518 1.75 1.75 0 0 1 -1.75-1.75v-36.877h-23.232a1.75 1.75 0 1 1 0-3.5h73.15v-4.59h-121v4.59h20.125a1.75 1.75 0 0 1 0 3.5h-21.875a1.75 1.75 0 0 1 -1.75-1.75v-8.09a1.75 1.75 0 0 1 1.75-1.75h57.79a21.745 21.745 0 0 1 -9.94-18.25v-28.374h-11.251a9.217 9.217 0 0 1 -9.034-7.455h-7.135a1.75 1.75 0 0 1 -1.75-1.75 15.182 15.182 0 0 1 15.164-15.164h19.275a31.868 31.868 0 0 1 17.286 5.069 1.75 1.75 0 0 1 -1.895 2.943 28.375 28.375 0 0 0 -15.391-4.512h-1.769v49.243a18.27 18.27 0 0 0 18.25 18.25h2.3a18.148 18.148 0 0 1 -7.178-14.779v-23.138a1.75 1.75 0 0 1 1.75-1.75 28.54 28.54 0 0 1 15.126 4.372v-3.718a28.228 28.228 0 0 0 -2.794-12.319 1.75 1.75 0 1 1 3.154-1.516 31.693 31.693 0 0 1 3.14 13.834v6.348a28.479 28.479 0 0 1 7.6 10.578c2.972 6.848 2.134 14.8 2.134 22.086h29.668a1.75 1.75 0 0 1 1.75 1.752zm-103.939-59.329h25.539v-9.914h-14.006a11.683 11.683 0 0 0 -11.533 9.914zm25.539 7.455v-3.955h-16.682a5.715 5.715 0 0 0 5.431 3.955zm20.375 33.595h22.55a24.518 24.518 0 0 0 -.88-3.109h-21.67zm0-19.576v12.967h20.1a25.1 25.1 0 0 0 -20.1-12.967zm23.108 36.1v-11.303c0-.579-.027-1.151-.066-1.721h-22.981a14.263 14.263 0 0 0 14.189 13.029zm-9.732 23.872v-12.277h-5.268v34.907a7.031 7.031 0 0 0 5.268-6.8zm8.768-12.277h-5.268v12.277a7.03 7.03 0 0 0 5.268 6.8zm-31.494-71.206a1.75 1.75 0 0 0 0 3.5h2a1.75 1.75 0 0 0 0-3.5z" fill="url(#linear-gradient)"/></svg>