<?xml version="1.0"?>
<svg xmlns="http://www.w3.org/2000/svg" xmlns:xlink="http://www.w3.org/1999/xlink" id="Layer_2" data-name="Layer 2" viewBox="0 0 128 128" width="512" height="512"><defs><linearGradient id="linear-gradient" x1="119.746" y1="119.746" x2="8.127" y2="8.127" gradientUnits="userSpaceOnUse"><stop offset="0" stop-color="#3f51b5"/><stop offset="1" stop-color="#00bcd4"/></linearGradient></defs><path d="M0,45.465V43.319a1.75,1.75,0,0,1,3.5,0v2.146a1.75,1.75,0,0,1-3.5,0ZM128,21.75v84.5a13.216,13.216,0,0,1-2.358,7.56,1.75,1.75,0,0,1-2.877-1.993,9.732,9.732,0,0,0,1.735-5.566,9.912,9.912,0,0,0-9.792-9.792H103.167a1.75,1.75,0,0,1-1.75-1.75V23.5H93.583v7.95a1.75,1.75,0,0,1-3.5,0V23.5h-4V36.45a1.75,1.75,0,0,1-3.5,0V23.5H49.7l-5,9.1a1.75,1.75,0,0,1-3,.11L35.716,23.5H26.583V94.708a1.75,1.75,0,0,1-1.75,1.75H13.292A9.913,9.913,0,0,0,3.5,106.25a9.8,9.8,0,0,0,9.792,9.792H37.75v-8.216a1.75,1.75,0,0,1,3.5,0v8.216h3.875V98.867a1.75,1.75,0,0,1,3.5,0v17.174h28.19l7.56-18.915a1.749,1.749,0,0,1,1.594-1.1A1.728,1.728,0,0,1,87.6,97.069l8.373,18.972h18.734a1.75,1.75,0,0,1,0,3.5H94.833a1.75,1.75,0,0,1-1.6-1.043L86.08,102.291l-6.455,16.15a1.75,1.75,0,0,1-1.625,1.1H13.292A13.306,13.306,0,0,1,0,106.25V57.333a1.75,1.75,0,0,1,3.5,0V97.271a13.411,13.411,0,0,1,9.792-4.312h9.792V21.75a9.792,9.792,0,0,0-19.583,0v9.7a1.75,1.75,0,0,1-3.5,0v-9.7A13.285,13.285,0,0,1,26.455,20H36.667a1.75,1.75,0,0,1,1.468.8l4.907,7.555,4.091-7.445A1.75,1.75,0,0,1,48.667,20h52.879A13.285,13.285,0,0,1,128,21.75ZM114.708,92.958a13.43,13.43,0,0,1,9.792,4.312V21.75a9.792,9.792,0,0,0-19.583,0V92.958ZM38.263,59.466a1.749,1.749,0,0,0,2.475,0l5.145-5.145,5.145,5.145A1.75,1.75,0,1,0,53.5,56.992l-5.145-5.145L53.5,46.7a1.75,1.75,0,1,0-2.475-2.475l-5.145,5.145-5.145-5.145A1.75,1.75,0,0,0,38.263,46.7l5.145,5.145-5.145,5.145A1.749,1.749,0,0,0,38.263,59.466ZM59.625,53.6a1.75,1.75,0,0,0,0-3.5h-3a1.75,1.75,0,0,0,0,3.5ZM84.6,54.8a1.75,1.75,0,0,0,1-3.187A8.44,8.44,0,0,0,80.762,50.1H78.546a1.75,1.75,0,0,0,0,3.5h2.215a4.96,4.96,0,0,1,2.845.89A1.74,1.74,0,0,0,84.6,54.8ZM82.981,67.349a1.753,1.753,0,0,0-2.057-1.375L74.737,67.2a1.75,1.75,0,1,0,.682,3.433l6.187-1.229A1.749,1.749,0,0,0,82.981,67.349ZM65.571,87.47h6.307a1.75,1.75,0,0,0,0-3.5H65.571a1.75,1.75,0,0,0,0,3.5ZM85.534,65.989a1.75,1.75,0,0,0,2.413-.55,8.481,8.481,0,0,0,1.3-4.52l0-2.577a1.75,1.75,0,1,0-3.5.108v2.469a4.982,4.982,0,0,1-.766,2.657A1.75,1.75,0,0,0,85.534,65.989ZM72.239,53.6a1.75,1.75,0,0,0,0-3.5H65.932a1.75,1.75,0,0,0,0,3.5ZM59,87.47h.261a1.75,1.75,0,0,0,0-3.5H59a4.969,4.969,0,0,1-3.9-1.876,1.75,1.75,0,0,0-2.733,2.186A8.45,8.45,0,0,0,59,87.47Zm3.7-14.344a1.747,1.747,0,0,0,.343-.034l6.187-1.229a1.75,1.75,0,0,0-.682-3.433L62.365,69.66a1.75,1.75,0,0,0,.339,3.467Zm-10.663,5.8a1.748,1.748,0,0,0,2.143-1.238,5,5,0,0,1,3-3.354,1.75,1.75,0,1,0-1.274-3.26A8.516,8.516,0,0,0,50.8,76.784,1.75,1.75,0,0,0,52.041,78.927ZM81.25,83.97h-3a1.75,1.75,0,0,0,0,3.5h3a1.75,1.75,0,0,0,0-3.5Z" style="fill:url(#linear-gradient)"/></svg>
