<?xml version="1.0"?>
<svg xmlns="http://www.w3.org/2000/svg" xmlns:xlink="http://www.w3.org/1999/xlink" id="Layer_2" data-name="Layer 2" viewBox="0 0 128 128" width="512" height="512"><defs><linearGradient id="linear-gradient" x1="103.192" y1="110.787" x2="24.856" y2="32.451" gradientUnits="userSpaceOnUse"><stop offset="0" stop-color="#3f51b5"/><stop offset="1" stop-color="#00bcd4"/></linearGradient></defs><path d="M68.75,13.583A1.75,1.75,0,0,1,67,15.333H61a1.75,1.75,0,0,1,0-3.5h6A1.75,1.75,0,0,1,68.75,13.583ZM70,68.458a1.75,1.75,0,0,0,1.75-1.75v-6.25a1.75,1.75,0,1,0-3.5,0v6.25A1.75,1.75,0,0,0,70,68.458Zm51.017-3.429-14.25-14.75a1.8,1.8,0,0,0-2.518,0L90,65.029A1.75,1.75,0,0,0,91.258,68h6.5v21.25a12.264,12.264,0,0,1-12.25,12.25H71.75v-23a1.75,1.75,0,0,0-3.5,0v24.745A1.75,1.75,0,0,0,70,105H85.508a15.768,15.768,0,0,0,15.75-15.75v-23a1.75,1.75,0,0,0-1.75-1.75H95.382l10.126-10.481L115.634,64.5h-4.126a1.75,1.75,0,0,0-1.75,1.75v23a24.277,24.277,0,0,1-24.25,24.25H82.534A22.847,22.847,0,0,0,64,122.973,22.847,22.847,0,0,0,45.466,113.5H42.492a24.021,24.021,0,0,1-10.45-2.36,1.75,1.75,0,0,0-1.511,3.157,27.5,27.5,0,0,0,11.96,2.7h2.974a19.349,19.349,0,0,1,17,10.093,1.75,1.75,0,0,0,3.073,0,19.349,19.349,0,0,1,17-10.093h2.974a27.782,27.782,0,0,0,27.75-27.75V68h6.5a1.75,1.75,0,0,0,1.259-2.966ZM26.742,66.245v23A15.768,15.768,0,0,0,42.492,105H58a1.75,1.75,0,0,0,1.75-1.75V36.667A1.75,1.75,0,0,0,58,34.917H42.417v-7.75H58a1.75,1.75,0,0,0,1.75-1.75V24.5a1.75,1.75,0,0,0-1.019-1.59,8.273,8.273,0,0,1-4.814-7.492V11.75a8.259,8.259,0,0,1,8.25-8.25h3.667a8.26,8.26,0,0,1,8.25,8.25v3.667a8.273,8.273,0,0,1-4.814,7.492A1.75,1.75,0,0,0,68.25,24.5v.918A1.75,1.75,0,0,0,70,27.167H85.583v7.75H70a1.75,1.75,0,0,0-1.75,1.75v12a1.75,1.75,0,0,0,3.5,0V38.417H87.333a1.75,1.75,0,0,0,1.75-1.75V25.417a1.75,1.75,0,0,0-1.75-1.75H74.184a11.763,11.763,0,0,0,3.4-8.25V11.75A11.763,11.763,0,0,0,65.833,0H62.167a11.763,11.763,0,0,0-11.75,11.75v3.667a11.763,11.763,0,0,0,3.4,8.25H40.667a1.75,1.75,0,0,0-1.75,1.75v11.25a1.75,1.75,0,0,0,1.75,1.75H56.25V101.5H42.492a12.264,12.264,0,0,1-12.25-12.25V68h6.5A1.75,1.75,0,0,0,38,65.029l-14.25-14.75a1.8,1.8,0,0,0-2.518,0L6.983,65.029A1.75,1.75,0,0,0,8.242,68h6.5v21.25a27.761,27.761,0,0,0,6.63,18,1.75,1.75,0,1,0,2.663-2.271,24.256,24.256,0,0,1-5.793-15.73v-23a1.75,1.75,0,0,0-1.75-1.75H12.366L22.492,54.014,32.618,64.5H28.492A1.75,1.75,0,0,0,26.742,66.245Z" style="fill:url(#linear-gradient)"/></svg>
