<svg id="Layer_2" height="512" viewBox="0 0 128 128" width="512" xmlns="http://www.w3.org/2000/svg" xmlns:xlink="http://www.w3.org/1999/xlink" data-name="Layer 2"><linearGradient id="linear-gradient" gradientUnits="userSpaceOnUse" x1="105.157" x2="27.092" y1="111.447" y2="33.382"><stop offset="0" stop-color="#3f51b5"/><stop offset="1" stop-color="#00bcd4"/></linearGradient><path d="m35.375 60.883a1.75 1.75 0 0 1 1.75-1.75h3.5a1.75 1.75 0 0 1 0 3.5h-3.5a1.75 1.75 0 0 1 -1.75-1.75zm14 1.75h28.061a16.683 16.683 0 0 0 16.664-17.485 16.874 16.874 0 0 0 -17.086-15.877h-1.686a1.751 1.751 0 0 0 -1.705 1.356 23.936 23.936 0 0 1 -10.623 14.964v-11.47a7.224 7.224 0 0 1 6.51-7.213 1.841 1.841 0 0 0 1.573-1.833 1.75 1.75 0 0 0 -1.573-1.741 7.224 7.224 0 0 1 -6.51-7.213v-11.47a23.931 23.931 0 0 1 10.623 14.962 1.751 1.751 0 0 0 1.705 1.356h2.386a46.435 46.435 0 0 1 27.554 8.97 1.749 1.749 0 1 0 2.063-2.826 49.905 49.905 0 0 0 -29.617-9.643h-1.029a27.41 27.41 0 0 0 -14.685-17.352 1.75 1.75 0 0 0 -2.5 1.582v14.421a10.721 10.721 0 0 0 4.849 9 10.721 10.721 0 0 0 -4.849 9v14.422a1.75 1.75 0 0 0 2.5 1.581 27.414 27.414 0 0 0 14.685-17.353h.329a13.379 13.379 0 0 1 13.586 12.542 13.183 13.183 0 0 1 -13.165 13.82h-28.06a1.75 1.75 0 0 0 0 3.5zm33.025 55.186 1.8 8.1a1.75 1.75 0 0 1 -1.708 2.13 31.214 31.214 0 0 1 -23.028-10.008h-17.714a41.821 41.821 0 0 1 -41.75-41.748 17.18 17.18 0 0 1 17.16-17.16h11.215a1.75 1.75 0 0 1 0 3.5h-11.215a13.676 13.676 0 0 0 -13.66 13.66c0 1.079.049 2.163.147 3.282h45.087.026a1.728 1.728 0 0 1 .517.089c.021.007.043.01.064.018a1.755 1.755 0 0 1 .439.245c.028.021.055.041.081.063a1.737 1.737 0 0 1 .331.371c.017.026.03.053.046.08a1.735 1.735 0 0 1 .2.5l4.849 21.793c.148.663.326 1.311.517 1.952.088.294.186.584.284.874q.153.458.321.909c.15.4.3.8.472 1.192.036.085.076.167.112.251a27.881 27.881 0 0 0 4.615 7.217 1.74 1.74 0 0 1 .146.2 27.659 27.659 0 0 0 18.532 9.131l-1.737-7.808v-.006l-7.773-34.941a1.75 1.75 0 1 1 3.416-.76l7.437 33.423a46.779 46.779 0 0 0 30.831-77.943 1.749 1.749 0 1 1 2.6-2.344 50.282 50.282 0 0 1 -32.66 83.738zm-25.736-3.276a31.473 31.473 0 0 1 -4.25-8.989c-.027-.091-.053-.182-.079-.273-.018-.065-.038-.129-.056-.194-.013-.047-.028-.094-.041-.141-.13-.478-.251-.96-.36-1.448l-4.547-20.423h-23.94a20.539 20.539 0 0 0 10.275 10.786 1.75 1.75 0 0 1 -1.488 3.168 24.039 24.039 0 0 1 -12.532-13.954h-6.781a30.557 30.557 0 0 0 29.5 22.726h.135a1.75 1.75 0 0 1 0 3.5h-.127a34.063 34.063 0 0 1 -33.121-26.226h-5.141a38.294 38.294 0 0 0 37.639 31.468zm-15.789-44.617a1.75 1.75 0 0 0 1.75 1.75h6.75a1.75 1.75 0 0 0 0-3.5h-6.75a1.75 1.75 0 0 0 -1.75 1.75z" fill="url(#linear-gradient)"/></svg>