<svg id="Layer_1" height="512" viewBox="0 0 128 128" width="512" xmlns="http://www.w3.org/2000/svg" xmlns:xlink="http://www.w3.org/1999/xlink" data-name="Layer 1"><linearGradient id="linear-gradient" gradientUnits="userSpaceOnUse" x1="100.224" x2="22.968" y1="105.9" y2="28.644"><stop offset="0" stop-color="#fb0025"/><stop offset="1" stop-color="#0087ff"/></linearGradient><path d="m51.652 90.6a19.8 19.8 0 0 0 12.348 4.261 19.994 19.994 0 1 0 -16.581-8.812 1.75 1.75 0 0 1 -2.9 1.96 23.51 23.51 0 1 1 4.972 5.339 1.75 1.75 0 1 1 2.161-2.748zm12.348-2.494a10.6 10.6 0 0 1 -10.589-10.588c0-5.426 8.368-14.359 9.322-15.36a1.8 1.8 0 0 1 2.533 0c.954 1 9.322 9.934 9.322 15.36a10.6 10.6 0 0 1 -10.588 10.588zm0-3.5a7.1 7.1 0 0 0 7.089-7.089c0-2.671-3.94-8-7.089-11.562-3.148 3.56-7.089 8.9-7.089 11.563a7.1 7.1 0 0 0 7.089 7.088zm35.483-4.418a1.75 1.75 0 0 0 -1.75 1.75v.687a1.75 1.75 0 1 0 3.5 0v-.687a1.75 1.75 0 0 0 -1.75-1.75zm1.75-30.994v26.619a1.75 1.75 0 1 1 -3.5 0v-26.619a7.06 7.06 0 0 0 -7.052-7.052h-60.414v58.385a7.06 7.06 0 0 0 7.052 7.052h53.363a7.06 7.06 0 0 0 7.052-7.052v-12.152a1.75 1.75 0 1 1 3.5 0v12.152a10.564 10.564 0 0 1 -10.552 10.552h-53.364a10.564 10.564 0 0 1 -10.552-10.552v-70.718a1.75 1.75 0 0 1 3.5 0v8.833h4.427v-7.65a6.5 6.5 0 0 1 6.5-6.5h14.307a6.5 6.5 0 0 1 6.5 6.5v3.508a1.75 1.75 0 0 1 -3.5 0v-3.508a3 3 0 0 0 -3-3h-14.31a3 3 0 0 0 -3 3v7.651h28.237v-8.834a9.4 9.4 0 0 0 -9.389-9.388h-17.383a9.4 9.4 0 0 0 -4.464 1.126 1.75 1.75 0 1 1 -1.668-3.077 12.909 12.909 0 0 1 6.132-1.549h17.383a12.9 12.9 0 0 1 12.889 12.888v8.833h5.373v-1.69h-1.223a1.75 1.75 0 0 1 -1.75-1.75v-8.527a1.75 1.75 0 0 1 1.75-1.75h16.9a1.75 1.75 0 0 1 1.75 1.75v8.525a1.75 1.75 0 0 1 -1.75 1.75h-1.229v1.69h.934a10.564 10.564 0 0 1 10.551 10.554zm-25.406-15.742h13.4v-5.027h-13.4zm2.975 5.19h7.446v-1.69h-7.448zm-49.689-12.848a1.748 1.748 0 0 0 2.389-.645q.11-.19.227-.374a1.75 1.75 0 0 0 -2.951-1.882q-.161.252-.309.511a1.75 1.75 0 0 0 .644 2.39z" fill="url(#linear-gradient)"/></svg>