<?xml version="1.0"?>
<svg xmlns="http://www.w3.org/2000/svg" xmlns:xlink="http://www.w3.org/1999/xlink" id="Layer_1" data-name="Layer 1" viewBox="0 0 128 128" width="512" height="512"><defs><linearGradient id="linear-gradient" x1="97.29" y1="97.29" x2="30.71" y2="30.71" gradientUnits="userSpaceOnUse"><stop offset="0" stop-color="#fb0025"/><stop offset="1" stop-color="#0087ff"/></linearGradient></defs><path d="M28.43,74.464,18.325,72.426a1.75,1.75,0,0,1-1.4-1.715V57.289a1.75,1.75,0,0,1,1.4-1.715L28.43,53.536a36.851,36.851,0,0,1,3.023-7.28l-5.709-8.594a1.749,1.749,0,0,1,.22-2.206l9.491-9.491a1.748,1.748,0,0,1,2.206-.22l8.594,5.709a36.851,36.851,0,0,1,7.28-3.023l2.038-10.105a1.75,1.75,0,0,1,1.715-1.4H70.711a1.75,1.75,0,0,1,1.715,1.4L74.464,28.43A36.927,36.927,0,0,1,82.7,32a1.75,1.75,0,0,1-1.769,3.021,33.367,33.367,0,0,0-8.415-3.495,1.749,1.749,0,0,1-1.272-1.347l-1.967-9.754H58.721l-1.967,9.754a1.749,1.749,0,0,1-1.272,1.347,33.367,33.367,0,0,0-8.415,3.495,1.748,1.748,0,0,1-1.853-.053l-8.3-5.512-7.466,7.466,5.512,8.3a1.749,1.749,0,0,1,.053,1.853,33.367,33.367,0,0,0-3.495,8.415,1.749,1.749,0,0,1-1.347,1.272l-9.754,1.967V69.279l9.754,1.967a1.749,1.749,0,0,1,1.347,1.272,33.367,33.367,0,0,0,3.495,8.415A1.75,1.75,0,1,1,32,82.7,36.927,36.927,0,0,1,28.43,74.464Zm81.245-18.891L99.57,53.536a36.851,36.851,0,0,0-3.023-7.28l5.709-8.594a1.749,1.749,0,0,0-.22-2.206l-9.491-9.491a1.75,1.75,0,0,0-2.206-.22l-4.278,2.842A1.75,1.75,0,1,0,88,31.5l3.085-2.049,7.466,7.465-5.512,8.3a1.749,1.749,0,0,0-.053,1.853,33.367,33.367,0,0,1,3.495,8.415,1.749,1.749,0,0,0,1.347,1.272l9.754,1.967V69.279l-9.754,1.967a1.749,1.749,0,0,0-1.347,1.272,33.367,33.367,0,0,1-3.495,8.415,1.749,1.749,0,0,0,.053,1.853l5.512,8.3-7.466,7.466-8.3-5.512a1.749,1.749,0,0,0-1.853-.053,33.367,33.367,0,0,1-8.415,3.495,1.749,1.749,0,0,0-1.272,1.347l-1.967,9.754H58.721l-1.967-9.754a1.749,1.749,0,0,0-1.272-1.347,33.367,33.367,0,0,1-8.415-3.495,1.752,1.752,0,0,0-1.853.053l-8.3,5.512-7.466-7.466,1.563-2.354A1.75,1.75,0,0,0,28.1,86.792l-2.356,3.546a1.749,1.749,0,0,0,.22,2.206l9.491,9.491a1.748,1.748,0,0,0,2.206.22l8.594-5.709a36.851,36.851,0,0,0,7.28,3.023l2.038,10.105a1.75,1.75,0,0,0,1.715,1.4H70.711a1.75,1.75,0,0,0,1.715-1.4L74.464,99.57a36.851,36.851,0,0,0,7.28-3.023l8.594,5.709a1.752,1.752,0,0,0,2.206-.22l9.491-9.491a1.749,1.749,0,0,0,.22-2.206l-5.709-8.594a36.851,36.851,0,0,0,3.023-7.28l10.105-2.038a1.75,1.75,0,0,0,1.4-1.715V57.289A1.75,1.75,0,0,0,109.675,55.574ZM45.211,51.725a1.751,1.751,0,0,0-2.376.693A24.1,24.1,0,1,0,55.558,41.4a1.75,1.75,0,1,0,1.226,3.278A20.618,20.618,0,1,1,45.9,54.1,1.75,1.75,0,0,0,45.211,51.725Zm4.93-3q.266-.242.54-.474a1.75,1.75,0,1,0-2.266-2.668q-.318.27-.628.551a1.75,1.75,0,0,0,2.354,2.591ZM64,80.785a16.737,16.737,0,0,0,5.645-.973,1.75,1.75,0,0,0-1.177-3.3,13.3,13.3,0,1,1,4.926-3.122,1.75,1.75,0,0,0,2.475,2.475A16.785,16.785,0,1,0,64,80.785Z" style="fill:url(#linear-gradient)"/></svg>
