<svg id="Layer_1" height="512" viewBox="0 0 128 128" width="512" xmlns="http://www.w3.org/2000/svg" xmlns:xlink="http://www.w3.org/1999/xlink" data-name="Layer 1"><linearGradient id="linear-gradient" gradientUnits="userSpaceOnUse" x1="97.274" x2="30.735" y1="97.274" y2="30.735"><stop offset="0" stop-color="#fb0025"/><stop offset="1" stop-color="#0087ff"/></linearGradient><path d="m111.079 64a47.079 47.079 0 1 1 -87.3-24.475 1.75 1.75 0 1 1 2.988 1.822 43.595 43.595 0 1 0 10.622-11.861 1.75 1.75 0 0 1 -2.139-2.771 46.633 46.633 0 0 1 28.75-9.794 47.132 47.132 0 0 1 47.079 47.079zm-81.132-28.171a1.748 1.748 0 0 0 1.315-.594q.354-.4.72-.8a1.75 1.75 0 0 0 -2.572-2.374q-.393.426-.776.862a1.75 1.75 0 0 0 1.313 2.906zm65.14 42.323q-.158.348-.324.691a1.75 1.75 0 1 0 3.148 1.527q.186-.382.361-.768a1.75 1.75 0 0 0 -3.186-1.45zm5.686-6.048a37.654 37.654 0 0 0 -10-34.545 1.161 1.161 0 0 0 -.328-.328 37.57 37.57 0 0 0 -52.881 0 1.161 1.161 0 0 0 -.328.328 37.571 37.571 0 0 0 0 52.882 1.163 1.163 0 0 0 .328.328 37.6 37.6 0 0 0 53.009-.1c.017-.016.036-.027.052-.043s.023-.03.036-.044a38.477 38.477 0 0 0 3.3-3.772 1.75 1.75 0 1 0 -2.783-2.122c-.581.762-1.2 1.484-1.83 2.187l-2.368-2.369a1.75 1.75 0 0 0 -2.475 2.475l2.373 2.372a34.066 34.066 0 0 1 -2.8 2.289 37.61 37.61 0 0 0 -33.728-3.276 1.75 1.75 0 1 0 1.27 3.262 34.2 34.2 0 0 1 29.2 2.117 34.184 34.184 0 0 1 -39.687-4.406l2.358-2.358a1.75 1.75 0 1 0 -2.475-2.475l-2.358 2.358a34.014 34.014 0 0 1 -8.758-21.114h3.35a1.75 1.75 0 0 0 0-3.5h-3.35a34.014 34.014 0 0 1 8.764-21.114l2.358 2.358a1.75 1.75 0 1 0 2.475-2.475l-2.358-2.358a34.012 34.012 0 0 1 21.111-8.761v3.35a1.75 1.75 0 0 0 3.5 0v-3.35a34.012 34.012 0 0 1 21.114 8.765l-2.358 2.358a1.75 1.75 0 1 0 2.475 2.475l2.358-2.358a34.014 34.014 0 0 1 8.761 21.11h-3.35a1.75 1.75 0 0 0 0 3.5h3.35a34.178 34.178 0 0 1 -.746 5.6 1.75 1.75 0 1 0 3.418.751zm-35.062-31.347c4.81 22.383 4.81 23.007 4.81 23.243a6.521 6.521 0 0 1 -13.041 0c0-.235 0-.86 4.81-23.243a1.75 1.75 0 0 1 3.422 0zm1.309 23.328c-.151-1-1.566-7.754-3.02-14.589-1.453 6.834-2.868 13.584-3.02 14.589a3.021 3.021 0 0 0 6.039 0z" fill="url(#linear-gradient)"/></svg>